{
	"patcher" : 	{
		"fileversion" : 1,
		"appversion" : 		{
			"major" : 8,
			"minor" : 1,
			"revision" : 5,
			"architecture" : "x64",
			"modernui" : 1
		}
,
		"classnamespace" : "box",
		"rect" : [ 34.0, 79.0, 1208.0, 687.0 ],
		"bglocked" : 0,
		"openinpresentation" : 1,
		"default_fontsize" : 12.0,
		"default_fontface" : 0,
		"default_fontname" : "Arial",
		"gridonopen" : 1,
		"gridsize" : [ 15.0, 15.0 ],
		"gridsnaponopen" : 1,
		"objectsnaponopen" : 1,
		"statusbarvisible" : 2,
		"toolbarvisible" : 1,
		"lefttoolbarpinned" : 0,
		"toptoolbarpinned" : 0,
		"righttoolbarpinned" : 0,
		"bottomtoolbarpinned" : 0,
		"toolbars_unpinned_last_save" : 0,
		"tallnewobj" : 0,
		"boxanimatetime" : 200,
		"enablehscroll" : 1,
		"enablevscroll" : 1,
		"devicewidth" : 0.0,
		"description" : "",
		"digest" : "",
		"tags" : "",
		"style" : "",
		"subpatcher_template" : "",
		"assistshowspatchername" : 0,
		"boxes" : [ 			{
				"box" : 				{
					"comment" : "",
					"id" : "obj-4",
					"index" : 0,
					"maxclass" : "outlet",
					"numinlets" : 1,
					"numoutlets" : 0,
					"patching_rect" : [ 844.25, 1040.0, 18.540196478366852, 18.540196478366852 ]
				}

			}
, 			{
				"box" : 				{
					"id" : "obj-11",
					"maxclass" : "newobj",
					"numinlets" : 2,
					"numoutlets" : 2,
					"outlettype" : [ "", "" ],
					"patching_rect" : [ 844.25, 1012.540196478366852, 35.0, 22.0 ],
					"text" : "zl.rot"
				}

			}
, 			{
				"box" : 				{
					"id" : "obj-16",
					"maxclass" : "newobj",
					"numinlets" : 1,
					"numoutlets" : 1,
					"outlettype" : [ "int" ],
					"patching_rect" : [ 486.0, 198.0, 22.0, 22.0 ],
					"text" : "t 0"
				}

			}
, 			{
				"box" : 				{
					"id" : "obj-13",
					"maxclass" : "newobj",
					"numinlets" : 1,
					"numoutlets" : 0,
					"patching_rect" : [ 486.0, 226.484317898750305, 53.0, 22.0 ],
					"text" : "s slider1"
				}

			}
, 			{
				"box" : 				{
					"id" : "obj-24",
					"maxclass" : "message",
					"numinlets" : 2,
					"numoutlets" : 1,
					"outlettype" : [ "" ],
					"patching_rect" : [ 596.0, 656.0, 50.0, 22.0 ]
				}

			}
, 			{
				"box" : 				{
					"id" : "obj-22",
					"maxclass" : "newobj",
					"numinlets" : 2,
					"numoutlets" : 2,
					"outlettype" : [ "", "" ],
					"patcher" : 					{
						"fileversion" : 1,
						"appversion" : 						{
							"major" : 8,
							"minor" : 1,
							"revision" : 5,
							"architecture" : "x64",
							"modernui" : 1
						}
,
						"classnamespace" : "box",
						"rect" : [ 672.0, 79.0, 570.0, 687.0 ],
						"bglocked" : 0,
						"openinpresentation" : 0,
						"default_fontsize" : 12.0,
						"default_fontface" : 0,
						"default_fontname" : "Arial",
						"gridonopen" : 1,
						"gridsize" : [ 15.0, 15.0 ],
						"gridsnaponopen" : 1,
						"objectsnaponopen" : 1,
						"statusbarvisible" : 2,
						"toolbarvisible" : 1,
						"lefttoolbarpinned" : 0,
						"toptoolbarpinned" : 0,
						"righttoolbarpinned" : 0,
						"bottomtoolbarpinned" : 0,
						"toolbars_unpinned_last_save" : 0,
						"tallnewobj" : 0,
						"boxanimatetime" : 200,
						"enablehscroll" : 1,
						"enablevscroll" : 1,
						"devicewidth" : 0.0,
						"description" : "",
						"digest" : "",
						"tags" : "",
						"style" : "",
						"subpatcher_template" : "",
						"assistshowspatchername" : 0,
						"boxes" : [ 							{
								"box" : 								{
									"id" : "obj-2",
									"maxclass" : "newobj",
									"numinlets" : 1,
									"numoutlets" : 0,
									"patching_rect" : [ 273.900000154972076, 190.400000035762787, 48.0, 22.0 ],
									"text" : "s over?"
								}

							}
, 							{
								"box" : 								{
									"id" : "obj-13",
									"linecount" : 3,
									"maxclass" : "message",
									"numinlets" : 2,
									"numoutlets" : 1,
									"outlettype" : [ "" ],
									"patching_rect" : [ 50.0, 503.0, 50.0, 49.0 ],
									"text" : "0.001 3378.502401"
								}

							}
, 							{
								"box" : 								{
									"id" : "obj-9",
									"maxclass" : "newobj",
									"numinlets" : 2,
									"numoutlets" : 1,
									"outlettype" : [ "" ],
									"patching_rect" : [ 163.900000154972076, 468.0, 93.0, 22.0 ],
									"text" : "pack f f"
								}

							}
, 							{
								"box" : 								{
									"id" : "obj-6",
									"maxclass" : "newobj",
									"numinlets" : 1,
									"numoutlets" : 2,
									"outlettype" : [ "float", "float" ],
									"patching_rect" : [ 163.900000154972076, 404.0, 93.0, 22.0 ],
									"text" : "unpack f f"
								}

							}
, 							{
								"box" : 								{
									"id" : "obj-5",
									"maxclass" : "newobj",
									"numinlets" : 2,
									"numoutlets" : 1,
									"outlettype" : [ "float" ],
									"patching_rect" : [ 164.400000154972076, 434.5, 49.0, 22.0 ],
									"text" : "+ 0.001"
								}

							}
, 							{
								"box" : 								{
									"id" : "obj-4",
									"maxclass" : "newobj",
									"numinlets" : 2,
									"numoutlets" : 1,
									"outlettype" : [ "float" ],
									"patching_rect" : [ 237.900000154972076, 434.5, 46.0, 22.0 ],
									"text" : "- 0.001"
								}

							}
, 							{
								"box" : 								{
									"id" : "obj-61",
									"maxclass" : "newobj",
									"numinlets" : 1,
									"numoutlets" : 1,
									"outlettype" : [ "int" ],
									"patching_rect" : [ 237.400000154972076, 190.400000035762787, 22.0, 22.0 ],
									"text" : "t 0"
								}

							}
, 							{
								"box" : 								{
									"id" : "obj-62",
									"maxclass" : "newobj",
									"numinlets" : 2,
									"numoutlets" : 2,
									"outlettype" : [ "bang", "" ],
									"patching_rect" : [ 237.400000154972076, 94.400000035762787, 34.0, 22.0 ],
									"text" : "sel 0"
								}

							}
, 							{
								"box" : 								{
									"id" : "obj-60",
									"maxclass" : "newobj",
									"numinlets" : 1,
									"numoutlets" : 1,
									"outlettype" : [ "int" ],
									"patching_rect" : [ 124.000001847743988, 190.400000035762787, 22.0, 22.0 ],
									"text" : "t 1"
								}

							}
, 							{
								"box" : 								{
									"id" : "obj-59",
									"maxclass" : "newobj",
									"numinlets" : 2,
									"numoutlets" : 2,
									"outlettype" : [ "bang", "" ],
									"patching_rect" : [ 124.000001847743988, 94.400001406669617, 34.0, 22.0 ],
									"text" : "sel 0"
								}

							}
, 							{
								"box" : 								{
									"id" : "obj-58",
									"maxclass" : "newobj",
									"numinlets" : 1,
									"numoutlets" : 1,
									"outlettype" : [ "" ],
									"patching_rect" : [ 237.400000154972076, 306.400001764297485, 96.0, 22.0 ],
									"text" : "prepend triggers"
								}

							}
, 							{
								"box" : 								{
									"comment" : "",
									"id" : "obj-49",
									"index" : 1,
									"maxclass" : "outlet",
									"numinlets" : 1,
									"numoutlets" : 0,
									"patching_rect" : [ 23.69999748468399, 227.000005304813385, 30.0, 30.0 ]
								}

							}
, 							{
								"box" : 								{
									"id" : "obj-42",
									"maxclass" : "newobj",
									"numinlets" : 2,
									"numoutlets" : 1,
									"outlettype" : [ "" ],
									"patching_rect" : [ 196.900000154972076, 340.399998128414154, 46.300000250339508, 22.0 ],
									"text" : "join"
								}

							}
, 							{
								"box" : 								{
									"id" : "obj-33",
									"maxclass" : "newobj",
									"numinlets" : 1,
									"numoutlets" : 2,
									"outlettype" : [ "", "float" ],
									"patching_rect" : [ 180.400000154972076, 278.400000810623169, 62.800000250339508, 22.0 ],
									"text" : "t l f"
								}

							}
, 							{
								"box" : 								{
									"id" : "obj-32",
									"maxclass" : "newobj",
									"numinlets" : 2,
									"numoutlets" : 1,
									"outlettype" : [ "int" ],
									"patching_rect" : [ 163.900000154972076, 190.400000035762787, 29.5, 22.0 ],
									"text" : "+ 1"
								}

							}
, 							{
								"box" : 								{
									"id" : "obj-27",
									"maxclass" : "newobj",
									"numinlets" : 3,
									"numoutlets" : 1,
									"outlettype" : [ "" ],
									"patching_rect" : [ 163.900000154972076, 373.999998271465302, 52.0, 22.0 ],
									"text" : "switch 2"
								}

							}
, 							{
								"box" : 								{
									"comment" : "",
									"id" : "obj-24",
									"index" : 2,
									"maxclass" : "inlet",
									"numinlets" : 0,
									"numoutlets" : 1,
									"outlettype" : [ "float" ],
									"patching_rect" : [ 196.9999960064888, 306.400001764297485, 30.0, 30.0 ]
								}

							}
, 							{
								"box" : 								{
									"comment" : "",
									"id" : "obj-15",
									"index" : 2,
									"maxclass" : "outlet",
									"numinlets" : 1,
									"numoutlets" : 0,
									"patching_rect" : [ 164.400000154972076, 535.199998736381531, 30.0, 30.0 ]
								}

							}
, 							{
								"box" : 								{
									"id" : "obj-12",
									"maxclass" : "newobj",
									"numinlets" : 2,
									"numoutlets" : 1,
									"outlettype" : [ "int" ],
									"patching_rect" : [ 202.900000154972076, 94.400000035762787, 29.5, 22.0 ],
									"text" : "- 1"
								}

							}
, 							{
								"box" : 								{
									"id" : "obj-11",
									"maxclass" : "newobj",
									"numinlets" : 2,
									"numoutlets" : 1,
									"outlettype" : [ "int" ],
									"patching_rect" : [ 163.900000154972076, 94.400000035762787, 29.5, 22.0 ],
									"text" : "- 1"
								}

							}
, 							{
								"box" : 								{
									"id" : "obj-8",
									"maxclass" : "newobj",
									"numinlets" : 1,
									"numoutlets" : 2,
									"outlettype" : [ "bang", "int" ],
									"patching_rect" : [ 202.900000154972076, 124.400000035762787, 29.5, 22.0 ],
									"text" : "t b i"
								}

							}
, 							{
								"box" : 								{
									"id" : "obj-7",
									"maxclass" : "newobj",
									"numinlets" : 2,
									"numoutlets" : 1,
									"outlettype" : [ "int" ],
									"patching_rect" : [ 163.900000154972076, 154.400000035762787, 68.5, 22.0 ],
									"text" : "||"
								}

							}
, 							{
								"box" : 								{
									"comment" : "",
									"id" : "obj-1",
									"index" : 1,
									"maxclass" : "inlet",
									"numinlets" : 0,
									"numoutlets" : 1,
									"outlettype" : [ "" ],
									"patching_rect" : [ 180.400000154972076, 231.400000751018524, 30.0, 30.0 ]
								}

							}
, 							{
								"box" : 								{
									"id" : "obj-47",
									"maxclass" : "newobj",
									"numinlets" : 0,
									"numoutlets" : 1,
									"outlettype" : [ "" ],
									"patching_rect" : [ 163.900000154972076, 37.400000035762787, 51.0, 22.0 ],
									"text" : "r lower?"
								}

							}
, 							{
								"box" : 								{
									"id" : "obj-46",
									"maxclass" : "newobj",
									"numinlets" : 0,
									"numoutlets" : 1,
									"outlettype" : [ "" ],
									"patching_rect" : [ 202.900000154972076, 63.199999988079071, 56.0, 22.0 ],
									"text" : "r higher?"
								}

							}
, 							{
								"box" : 								{
									"id" : "obj-16",
									"maxclass" : "newobj",
									"numinlets" : 1,
									"numoutlets" : 1,
									"outlettype" : [ "" ],
									"patching_rect" : [ 23.69999748468399, 190.400000035762787, 85.0, 22.0 ],
									"text" : "prepend invert"
								}

							}
 ],
						"lines" : [ 							{
								"patchline" : 								{
									"destination" : [ "obj-33", 0 ],
									"source" : [ "obj-1", 0 ]
								}

							}
, 							{
								"patchline" : 								{
									"destination" : [ "obj-7", 0 ],
									"source" : [ "obj-11", 0 ]
								}

							}
, 							{
								"patchline" : 								{
									"destination" : [ "obj-8", 0 ],
									"source" : [ "obj-12", 0 ]
								}

							}
, 							{
								"patchline" : 								{
									"destination" : [ "obj-49", 0 ],
									"source" : [ "obj-16", 0 ]
								}

							}
, 							{
								"patchline" : 								{
									"destination" : [ "obj-42", 0 ],
									"source" : [ "obj-24", 0 ]
								}

							}
, 							{
								"patchline" : 								{
									"destination" : [ "obj-6", 0 ],
									"source" : [ "obj-27", 0 ]
								}

							}
, 							{
								"patchline" : 								{
									"destination" : [ "obj-27", 0 ],
									"source" : [ "obj-32", 0 ]
								}

							}
, 							{
								"patchline" : 								{
									"destination" : [ "obj-27", 1 ],
									"source" : [ "obj-33", 0 ]
								}

							}
, 							{
								"patchline" : 								{
									"destination" : [ "obj-42", 1 ],
									"source" : [ "obj-33", 1 ]
								}

							}
, 							{
								"patchline" : 								{
									"destination" : [ "obj-9", 1 ],
									"source" : [ "obj-4", 0 ]
								}

							}
, 							{
								"patchline" : 								{
									"destination" : [ "obj-27", 2 ],
									"source" : [ "obj-42", 0 ]
								}

							}
, 							{
								"patchline" : 								{
									"destination" : [ "obj-12", 0 ],
									"order" : 1,
									"source" : [ "obj-46", 0 ]
								}

							}
, 							{
								"patchline" : 								{
									"destination" : [ "obj-62", 0 ],
									"order" : 0,
									"source" : [ "obj-46", 0 ]
								}

							}
, 							{
								"patchline" : 								{
									"destination" : [ "obj-11", 0 ],
									"order" : 0,
									"source" : [ "obj-47", 0 ]
								}

							}
, 							{
								"patchline" : 								{
									"destination" : [ "obj-59", 0 ],
									"order" : 1,
									"source" : [ "obj-47", 0 ]
								}

							}
, 							{
								"patchline" : 								{
									"destination" : [ "obj-9", 0 ],
									"source" : [ "obj-5", 0 ]
								}

							}
, 							{
								"patchline" : 								{
									"destination" : [ "obj-42", 0 ],
									"source" : [ "obj-58", 0 ]
								}

							}
, 							{
								"patchline" : 								{
									"destination" : [ "obj-60", 0 ],
									"source" : [ "obj-59", 0 ]
								}

							}
, 							{
								"patchline" : 								{
									"destination" : [ "obj-4", 0 ],
									"source" : [ "obj-6", 1 ]
								}

							}
, 							{
								"patchline" : 								{
									"destination" : [ "obj-5", 0 ],
									"source" : [ "obj-6", 0 ]
								}

							}
, 							{
								"patchline" : 								{
									"destination" : [ "obj-58", 0 ],
									"midpoints" : [ 133.500001847743988, 271.300000816583633, 246.900000154972076, 271.300000816583633 ],
									"source" : [ "obj-60", 0 ]
								}

							}
, 							{
								"patchline" : 								{
									"destination" : [ "obj-58", 0 ],
									"source" : [ "obj-61", 0 ]
								}

							}
, 							{
								"patchline" : 								{
									"destination" : [ "obj-61", 0 ],
									"source" : [ "obj-62", 0 ]
								}

							}
, 							{
								"patchline" : 								{
									"destination" : [ "obj-16", 0 ],
									"order" : 2,
									"source" : [ "obj-7", 0 ]
								}

							}
, 							{
								"patchline" : 								{
									"destination" : [ "obj-2", 0 ],
									"order" : 0,
									"source" : [ "obj-7", 0 ]
								}

							}
, 							{
								"patchline" : 								{
									"destination" : [ "obj-32", 0 ],
									"order" : 1,
									"source" : [ "obj-7", 0 ]
								}

							}
, 							{
								"patchline" : 								{
									"destination" : [ "obj-7", 1 ],
									"source" : [ "obj-8", 1 ]
								}

							}
, 							{
								"patchline" : 								{
									"destination" : [ "obj-7", 0 ],
									"source" : [ "obj-8", 0 ]
								}

							}
, 							{
								"patchline" : 								{
									"destination" : [ "obj-13", 1 ],
									"order" : 1,
									"source" : [ "obj-9", 0 ]
								}

							}
, 							{
								"patchline" : 								{
									"destination" : [ "obj-15", 0 ],
									"order" : 0,
									"source" : [ "obj-9", 0 ]
								}

							}
 ]
					}
,
					"patching_rect" : [ 832.133345305919647, 1060.540196478366852, 80.666667878627777, 22.0 ],
					"saved_object_attributes" : 					{
						"description" : "",
						"digest" : "",
						"globalpatchername" : "",
						"tags" : ""
					}
,
					"text" : "p invert"
				}

			}
, 			{
				"box" : 				{
					"id" : "obj-20",
					"maxclass" : "message",
					"numinlets" : 2,
					"numoutlets" : 1,
					"outlettype" : [ "" ],
					"patching_rect" : [ 556.0, 667.0, 50.0, 22.0 ]
				}

			}
, 			{
				"box" : 				{
					"id" : "obj-15",
					"maxclass" : "message",
					"numinlets" : 2,
					"numoutlets" : 1,
					"outlettype" : [ "" ],
					"patching_rect" : [ 521.0, 667.0, 50.0, 22.0 ]
				}

			}
, 			{
				"box" : 				{
					"id" : "obj-12",
					"maxclass" : "button",
					"numinlets" : 1,
					"numoutlets" : 1,
					"outlettype" : [ "bang" ],
					"parameter_enable" : 0,
					"patching_rect" : [ 521.0, 667.0, 24.0, 24.0 ]
				}

			}
, 			{
				"box" : 				{
					"comment" : "",
					"id" : "obj-1",
					"index" : 0,
					"maxclass" : "outlet",
					"numinlets" : 1,
					"numoutlets" : 0,
					"patching_rect" : [ 955.466681063175201, 1040.0, 30.0, 30.0 ]
				}

			}
, 			{
				"box" : 				{
					"id" : "obj-14",
					"maxclass" : "newobj",
					"numinlets" : 2,
					"numoutlets" : 1,
					"outlettype" : [ "int" ],
					"patching_rect" : [ 731.168824195861816, 1052.333319842815399, 29.5, 22.0 ],
					"text" : "/ 2"
				}

			}
, 			{
				"box" : 				{
					"id" : "obj-9",
					"maxclass" : "newobj",
					"numinlets" : 2,
					"numoutlets" : 1,
					"outlettype" : [ "bang" ],
					"patching_rect" : [ 596.448142826557159, 25.0, 48.0, 22.0 ],
					"text" : "del 450"
				}

			}
, 			{
				"box" : 				{
					"id" : "obj-7",
					"maxclass" : "newobj",
					"numinlets" : 2,
					"numoutlets" : 1,
					"outlettype" : [ "bang" ],
					"patching_rect" : [ 553.982711136341095, 25.0, 35.0, 22.0 ],
					"text" : "del 1"
				}

			}
, 			{
				"box" : 				{
					"id" : "obj-5",
					"maxclass" : "newobj",
					"numinlets" : 1,
					"numoutlets" : 1,
					"outlettype" : [ "bang" ],
					"patching_rect" : [ 553.982711136341095, -4.0, 58.0, 22.0 ],
					"text" : "loadbang"
				}

			}
, 			{
				"box" : 				{
					"id" : "obj-8",
					"maxclass" : "newobj",
					"numinlets" : 1,
					"numoutlets" : 1,
					"outlettype" : [ "" ],
					"patching_rect" : [ 177.0, 552.0, 116.0, 22.0 ],
					"text" : "loadmess loadbuffer"
				}

			}
, 			{
				"box" : 				{
					"id" : "obj-6",
					"maxclass" : "newobj",
					"numinlets" : 1,
					"numoutlets" : 1,
					"outlettype" : [ "" ],
					"patching_rect" : [ -8.0, 600.600003659725189, 72.0, 22.0 ],
					"text" : "prepend set"
				}

			}
, 			{
				"box" : 				{
					"id" : "obj-3",
					"maxclass" : "comment",
					"numinlets" : 1,
					"numoutlets" : 0,
					"patching_rect" : [ 939.800013184547424, 945.600009441375732, 53.0, 20.0 ],
					"presentation" : 1,
					"presentation_rect" : [ 182.325529590249062, 2.166656076908112, 53.0, 20.0 ],
					"text" : "Reverse"
				}

			}
, 			{
				"box" : 				{
					"id" : "obj-2",
					"maxclass" : "comment",
					"numinlets" : 1,
					"numoutlets" : 0,
					"patching_rect" : [ 582.198142826557273, 55.609715104103088, 40.0, 20.0 ],
					"presentation" : 1,
					"presentation_rect" : [ 23.916653037071228, 1.666656076908112, 40.0, 20.0 ],
					"text" : "Reset"
				}

			}
, 			{
				"box" : 				{
					"comment" : "",
					"id" : "obj-35",
					"index" : 0,
					"maxclass" : "inlet",
					"numinlets" : 0,
					"numoutlets" : 1,
					"outlettype" : [ "" ],
					"patching_rect" : [ 68.500019340625727, 552.0, 30.0, 30.0 ]
				}

			}
, 			{
				"box" : 				{
					"fontsize" : 12.0,
					"id" : "obj-185",
					"maxclass" : "message",
					"numinlets" : 2,
					"numoutlets" : 1,
					"outlettype" : [ "" ],
					"patching_rect" : [ 105.250019340625727, 560.0, 29.5, 22.0 ],
					"text" : "$2"
				}

			}
, 			{
				"box" : 				{
					"fontsize" : 12.0,
					"id" : "obj-183",
					"maxclass" : "newobj",
					"numinlets" : 1,
					"numoutlets" : 2,
					"outlettype" : [ "bang", "bang" ],
					"patching_rect" : [ 105.250019340625727, 383.646576523780823, 50.0, 22.0 ],
					"text" : "t b b"
				}

			}
, 			{
				"box" : 				{
					"fontsize" : 12.0,
					"id" : "obj-34",
					"maxclass" : "message",
					"numinlets" : 2,
					"numoutlets" : 1,
					"outlettype" : [ "" ],
					"patching_rect" : [ 58.25001701604458, 383.646576523780823, 41.0, 22.0 ],
					"text" : "set $2"
				}

			}
, 			{
				"box" : 				{
					"fontsize" : 12.0,
					"id" : "obj-169",
					"maxclass" : "newobj",
					"numinlets" : 2,
					"numoutlets" : 2,
					"outlettype" : [ "bang", "" ],
					"patching_rect" : [ 163.250019340625727, 493.313247084617615, 41.0, 22.0 ],
					"text" : "sel 13"
				}

			}
, 			{
				"box" : 				{
					"fontsize" : 12.0,
					"id" : "obj-166",
					"linecount" : 3,
					"maxclass" : "message",
					"numinlets" : 2,
					"numoutlets" : 1,
					"outlettype" : [ "" ],
					"patching_rect" : [ 105.250019340625727, 493.313247084617615, 50.0, 49.0 ],
					"text" : "text loadbuffer"
				}

			}
, 			{
				"box" : 				{
					"id" : "obj-164",
					"maxclass" : "textedit",
					"numinlets" : 1,
					"numoutlets" : 4,
					"outlettype" : [ "", "int", "", "" ],
					"parameter_enable" : 0,
					"patching_rect" : [ 136.250019340625727, 427.979911804199219, 100.0, 50.0 ],
					"presentation" : 1,
					"presentation_rect" : [ 64.916653037071228, -0.083343923091888, 111.333329975605011, 24.500000059604645 ],
					"text" : "loadbuffer"
				}

			}
, 			{
				"box" : 				{
					"id" : "obj-168",
					"maxclass" : "newobj",
					"numinlets" : 1,
					"numoutlets" : 2,
					"outlettype" : [ "int", "float" ],
					"patcher" : 					{
						"fileversion" : 1,
						"appversion" : 						{
							"major" : 8,
							"minor" : 1,
							"revision" : 5,
							"architecture" : "x64",
							"modernui" : 1
						}
,
						"classnamespace" : "box",
						"rect" : [ 59.0, 104.0, 640.0, 480.0 ],
						"bglocked" : 0,
						"openinpresentation" : 0,
						"default_fontsize" : 12.0,
						"default_fontface" : 0,
						"default_fontname" : "Arial",
						"gridonopen" : 1,
						"gridsize" : [ 15.0, 15.0 ],
						"gridsnaponopen" : 1,
						"objectsnaponopen" : 1,
						"statusbarvisible" : 2,
						"toolbarvisible" : 1,
						"lefttoolbarpinned" : 0,
						"toptoolbarpinned" : 0,
						"righttoolbarpinned" : 0,
						"bottomtoolbarpinned" : 0,
						"toolbars_unpinned_last_save" : 0,
						"tallnewobj" : 0,
						"boxanimatetime" : 200,
						"enablehscroll" : 1,
						"enablevscroll" : 1,
						"devicewidth" : 0.0,
						"description" : "",
						"digest" : "",
						"tags" : "",
						"style" : "",
						"subpatcher_template" : "",
						"assistshowspatchername" : 0,
						"boxes" : [ 							{
								"box" : 								{
									"id" : "obj-107",
									"maxclass" : "newobj",
									"numinlets" : 2,
									"numoutlets" : 1,
									"outlettype" : [ "float" ],
									"patching_rect" : [ 57.0, 212.999988555908203, 29.5, 22.0 ],
									"text" : "f"
								}

							}
, 							{
								"box" : 								{
									"id" : "obj-106",
									"maxclass" : "newobj",
									"numinlets" : 2,
									"numoutlets" : 1,
									"outlettype" : [ "int" ],
									"patching_rect" : [ 57.0, 275.829054057598114, 29.5, 22.0 ],
									"text" : "/ 2"
								}

							}
, 							{
								"box" : 								{
									"id" : "obj-45",
									"maxclass" : "newobj",
									"numinlets" : 1,
									"numoutlets" : 1,
									"outlettype" : [ "" ],
									"patching_rect" : [ 487.096759557723999, 212.999988555908203, 136.0, 22.0 ],
									"text" : "prepend verticaltracking"
								}

							}
, 							{
								"box" : 								{
									"id" : "obj-44",
									"maxclass" : "newobj",
									"numinlets" : 1,
									"numoutlets" : 1,
									"outlettype" : [ "" ],
									"patching_rect" : [ 324.096759557723999, 212.999988555908203, 150.0, 22.0 ],
									"text" : "prepend horizontaltracking"
								}

							}
, 							{
								"box" : 								{
									"id" : "obj-41",
									"maxclass" : "newobj",
									"numinlets" : 2,
									"numoutlets" : 1,
									"outlettype" : [ "int" ],
									"patching_rect" : [ 94.096759557723999, 100.0, 37.0, 22.0 ],
									"text" : "* 100"
								}

							}
, 							{
								"box" : 								{
									"id" : "obj-40",
									"maxclass" : "newobj",
									"numinlets" : 0,
									"numoutlets" : 1,
									"outlettype" : [ "" ],
									"patching_rect" : [ 324.096759557723999, 39.999993516971585, 130.0, 22.0 ],
									"text" : "r ira.sampler.buffersize"
								}

							}
, 							{
								"box" : 								{
									"id" : "obj-38",
									"maxclass" : "newobj",
									"numinlets" : 1,
									"numoutlets" : 1,
									"outlettype" : [ "" ],
									"patching_rect" : [ 211.096759557723999, 212.999988555908203, 101.0, 22.0 ],
									"text" : "prepend topvalue"
								}

							}
, 							{
								"box" : 								{
									"id" : "obj-34",
									"maxclass" : "newobj",
									"numinlets" : 1,
									"numoutlets" : 1,
									"outlettype" : [ "" ],
									"patching_rect" : [ 94.096759557723999, 212.999988555908203, 108.0, 22.0 ],
									"text" : "prepend rightvalue"
								}

							}
, 							{
								"box" : 								{
									"comment" : "",
									"id" : "obj-165",
									"index" : 1,
									"maxclass" : "inlet",
									"numinlets" : 0,
									"numoutlets" : 1,
									"outlettype" : [ "bang" ],
									"patching_rect" : [ 57.0, 39.999993516971585, 30.0, 30.0 ]
								}

							}
, 							{
								"box" : 								{
									"comment" : "",
									"id" : "obj-166",
									"index" : 2,
									"maxclass" : "outlet",
									"numinlets" : 1,
									"numoutlets" : 0,
									"patching_rect" : [ 110.000015863658859, 373.829049516971622, 30.0, 30.0 ]
								}

							}
, 							{
								"box" : 								{
									"comment" : "",
									"id" : "obj-167",
									"index" : 1,
									"maxclass" : "outlet",
									"numinlets" : 1,
									"numoutlets" : 0,
									"patching_rect" : [ 57.0, 373.829049516971622, 30.0, 30.0 ]
								}

							}
 ],
						"lines" : [ 							{
								"patchline" : 								{
									"destination" : [ "obj-167", 0 ],
									"source" : [ "obj-106", 0 ]
								}

							}
, 							{
								"patchline" : 								{
									"destination" : [ "obj-106", 0 ],
									"order" : 1,
									"source" : [ "obj-107", 0 ]
								}

							}
, 							{
								"patchline" : 								{
									"destination" : [ "obj-166", 0 ],
									"order" : 0,
									"source" : [ "obj-107", 0 ]
								}

							}
, 							{
								"patchline" : 								{
									"destination" : [ "obj-107", 0 ],
									"source" : [ "obj-165", 0 ]
								}

							}
, 							{
								"patchline" : 								{
									"destination" : [ "obj-167", 0 ],
									"source" : [ "obj-34", 0 ]
								}

							}
, 							{
								"patchline" : 								{
									"destination" : [ "obj-167", 0 ],
									"source" : [ "obj-38", 0 ]
								}

							}
, 							{
								"patchline" : 								{
									"destination" : [ "obj-41", 0 ],
									"order" : 2,
									"source" : [ "obj-40", 0 ]
								}

							}
, 							{
								"patchline" : 								{
									"destination" : [ "obj-44", 0 ],
									"order" : 1,
									"source" : [ "obj-40", 0 ]
								}

							}
, 							{
								"patchline" : 								{
									"destination" : [ "obj-45", 0 ],
									"order" : 0,
									"source" : [ "obj-40", 0 ]
								}

							}
, 							{
								"patchline" : 								{
									"destination" : [ "obj-107", 1 ],
									"order" : 2,
									"source" : [ "obj-41", 0 ]
								}

							}
, 							{
								"patchline" : 								{
									"destination" : [ "obj-34", 0 ],
									"order" : 1,
									"source" : [ "obj-41", 0 ]
								}

							}
, 							{
								"patchline" : 								{
									"destination" : [ "obj-38", 0 ],
									"order" : 0,
									"source" : [ "obj-41", 0 ]
								}

							}
, 							{
								"patchline" : 								{
									"destination" : [ "obj-167", 0 ],
									"source" : [ "obj-44", 0 ]
								}

							}
, 							{
								"patchline" : 								{
									"destination" : [ "obj-167", 0 ],
									"source" : [ "obj-45", 0 ]
								}

							}
 ]
					}
,
					"patching_rect" : [ 608.579470694065094, 94.9259392619133, 108.739063322544098, 22.0 ],
					"saved_object_attributes" : 					{
						"description" : "",
						"digest" : "",
						"globalpatchername" : "",
						"tags" : ""
					}
,
					"text" : "p ictslider"
				}

			}
, 			{
				"box" : 				{
					"id" : "obj-152",
					"maxclass" : "newobj",
					"numinlets" : 2,
					"numoutlets" : 0,
					"patcher" : 					{
						"fileversion" : 1,
						"appversion" : 						{
							"major" : 8,
							"minor" : 1,
							"revision" : 5,
							"architecture" : "x64",
							"modernui" : 1
						}
,
						"classnamespace" : "box",
						"rect" : [ 59.0, 104.0, 640.0, 480.0 ],
						"bglocked" : 0,
						"openinpresentation" : 0,
						"default_fontsize" : 12.0,
						"default_fontface" : 0,
						"default_fontname" : "Arial",
						"gridonopen" : 1,
						"gridsize" : [ 15.0, 15.0 ],
						"gridsnaponopen" : 1,
						"objectsnaponopen" : 1,
						"statusbarvisible" : 2,
						"toolbarvisible" : 1,
						"lefttoolbarpinned" : 0,
						"toptoolbarpinned" : 0,
						"righttoolbarpinned" : 0,
						"bottomtoolbarpinned" : 0,
						"toolbars_unpinned_last_save" : 0,
						"tallnewobj" : 0,
						"boxanimatetime" : 200,
						"enablehscroll" : 1,
						"enablevscroll" : 1,
						"devicewidth" : 0.0,
						"description" : "",
						"digest" : "",
						"tags" : "",
						"style" : "",
						"subpatcher_template" : "",
						"assistshowspatchername" : 0,
						"boxes" : [ 							{
								"box" : 								{
									"comment" : "",
									"id" : "obj-1",
									"index" : 2,
									"maxclass" : "inlet",
									"numinlets" : 0,
									"numoutlets" : 1,
									"outlettype" : [ "" ],
									"patching_rect" : [ 229.0, 159.549275159835815, 30.0, 30.0 ]
								}

							}
, 							{
								"box" : 								{
									"id" : "obj-124",
									"maxclass" : "newobj",
									"numinlets" : 1,
									"numoutlets" : 0,
									"patching_rect" : [ 213.407405942678452, 247.603990793228149, 53.0, 22.0 ],
									"text" : "s slider2"
								}

							}
, 							{
								"box" : 								{
									"id" : "obj-121",
									"maxclass" : "newobj",
									"numinlets" : 1,
									"numoutlets" : 0,
									"patching_rect" : [ 50.0, 247.603990793228149, 53.0, 22.0 ],
									"text" : "s slider1"
								}

							}
, 							{
								"box" : 								{
									"id" : "obj-103",
									"maxclass" : "newobj",
									"numinlets" : 1,
									"numoutlets" : 2,
									"outlettype" : [ "int", "bang" ],
									"patching_rect" : [ 50.0, 100.0, 182.407405942678452, 22.0 ],
									"text" : "t 0 b"
								}

							}
, 							{
								"box" : 								{
									"id" : "obj-96",
									"maxclass" : "newobj",
									"numinlets" : 2,
									"numoutlets" : 1,
									"outlettype" : [ "float" ],
									"patching_rect" : [ 213.407405942678452, 197.974359273910522, 29.5, 22.0 ],
									"text" : "f"
								}

							}
, 							{
								"box" : 								{
									"id" : "obj-479",
									"maxclass" : "newobj",
									"numinlets" : 0,
									"numoutlets" : 1,
									"outlettype" : [ "" ],
									"patching_rect" : [ 80.166665345430374, 134.455836951732635, 130.0, 22.0 ],
									"text" : "r ira.sampler.buffersize"
								}

							}
, 							{
								"box" : 								{
									"id" : "obj-265",
									"maxclass" : "newobj",
									"numinlets" : 1,
									"numoutlets" : 3,
									"outlettype" : [ "int", "float", "float" ],
									"patching_rect" : [ 80.166665345430374, 159.549275159835815, 63.148147761821747, 22.0 ],
									"text" : "t 0 f f"
								}

							}
, 							{
								"box" : 								{
									"id" : "obj-77",
									"maxclass" : "newobj",
									"numinlets" : 1,
									"numoutlets" : 1,
									"outlettype" : [ "" ],
									"patching_rect" : [ 124.314813107252121, 197.974359273910522, 77.0, 22.0 ],
									"text" : "prepend size"
								}

							}
, 							{
								"box" : 								{
									"comment" : "",
									"id" : "obj-151",
									"index" : 1,
									"maxclass" : "inlet",
									"numinlets" : 0,
									"numoutlets" : 1,
									"outlettype" : [ "bang" ],
									"patching_rect" : [ 49.999993342535021, 39.999998354644788, 30.0, 30.0 ]
								}

							}
 ],
						"lines" : [ 							{
								"patchline" : 								{
									"destination" : [ "obj-96", 0 ],
									"source" : [ "obj-1", 0 ]
								}

							}
, 							{
								"patchline" : 								{
									"destination" : [ "obj-121", 0 ],
									"source" : [ "obj-103", 0 ]
								}

							}
, 							{
								"patchline" : 								{
									"destination" : [ "obj-96", 0 ],
									"source" : [ "obj-103", 1 ]
								}

							}
, 							{
								"patchline" : 								{
									"destination" : [ "obj-103", 0 ],
									"source" : [ "obj-151", 0 ]
								}

							}
, 							{
								"patchline" : 								{
									"destination" : [ "obj-121", 0 ],
									"source" : [ "obj-265", 0 ]
								}

							}
, 							{
								"patchline" : 								{
									"destination" : [ "obj-77", 0 ],
									"source" : [ "obj-265", 2 ]
								}

							}
, 							{
								"patchline" : 								{
									"destination" : [ "obj-96", 0 ],
									"midpoints" : [ 111.740739226341248, 189.261817216873169, 222.907405942678452, 189.261817216873169 ],
									"source" : [ "obj-265", 1 ]
								}

							}
, 							{
								"patchline" : 								{
									"destination" : [ "obj-265", 0 ],
									"source" : [ "obj-479", 0 ]
								}

							}
, 							{
								"patchline" : 								{
									"destination" : [ "obj-121", 0 ],
									"order" : 1,
									"source" : [ "obj-77", 0 ]
								}

							}
, 							{
								"patchline" : 								{
									"destination" : [ "obj-124", 0 ],
									"order" : 0,
									"source" : [ "obj-77", 0 ]
								}

							}
, 							{
								"patchline" : 								{
									"destination" : [ "obj-124", 0 ],
									"source" : [ "obj-96", 0 ]
								}

							}
 ]
					}
,
					"patching_rect" : [ 553.982711136341095, 196.119094491004944, 45.0, 22.0 ],
					"saved_object_attributes" : 					{
						"description" : "",
						"digest" : "",
						"globalpatchername" : "",
						"tags" : ""
					}
,
					"text" : "p reset"
				}

			}
, 			{
				"box" : 				{
					"bgcolor" : [ 0.847058823529412, 0.466666666666667, 0.466666666666667, 0.0 ],
					"id" : "obj-149",
					"ignoreclick" : 1,
					"knobcolor" : [ 0.807843, 0.898039, 0.909804, 0.08 ],
					"knobshape" : 5,
					"maxclass" : "slider",
					"numinlets" : 1,
					"numoutlets" : 1,
					"outlettype" : [ "" ],
					"parameter_enable" : 0,
					"patching_rect" : [ 544.209808588027954, 1257.243472874164581, 54.0, 64.0 ],
					"presentation" : 1,
					"presentation_rect" : [ -0.750013798475266, 20.685164570808411, 266.651090085506439, 93.666656672954559 ],
					"size" : 3378.0
				}

			}
, 			{
				"box" : 				{
					"id" : "obj-143",
					"maxclass" : "newobj",
					"numinlets" : 2,
					"numoutlets" : 1,
					"outlettype" : [ "int" ],
					"patching_rect" : [ 859.333357810974121, 181.119094491004944, 37.0, 22.0 ],
					"text" : "* 100"
				}

			}
, 			{
				"box" : 				{
					"id" : "obj-141",
					"maxclass" : "newobj",
					"numinlets" : 2,
					"numoutlets" : 1,
					"outlettype" : [ "int" ],
					"patching_rect" : [ 816.666689872741699, 181.119094491004944, 37.0, 22.0 ],
					"text" : "* 100"
				}

			}
, 			{
				"box" : 				{
					"id" : "obj-137",
					"maxclass" : "newobj",
					"numinlets" : 2,
					"numoutlets" : 1,
					"outlettype" : [ "" ],
					"patching_rect" : [ 816.666689872741699, 208.89687180519104, 61.333333969116211, 22.0 ],
					"text" : "pak i i"
				}

			}
, 			{
				"box" : 				{
					"id" : "obj-132",
					"maxclass" : "newobj",
					"numinlets" : 1,
					"numoutlets" : 1,
					"outlettype" : [ "" ],
					"patching_rect" : [ 816.666689872741699, 237.999996066093445, 72.0, 22.0 ],
					"text" : "prepend set"
				}

			}
, 			{
				"box" : 				{
					"id" : "obj-131",
					"maxclass" : "newobj",
					"numinlets" : 1,
					"numoutlets" : 0,
					"patching_rect" : [ 664.818534016609192, 634.706555247306824, 53.0, 22.0 ],
					"text" : "s slider2"
				}

			}
, 			{
				"box" : 				{
					"id" : "obj-129",
					"maxclass" : "newobj",
					"numinlets" : 1,
					"numoutlets" : 0,
					"patching_rect" : [ 587.448142826557159, 634.706555247306824, 53.0, 22.0 ],
					"text" : "s slider1"
				}

			}
, 			{
				"box" : 				{
					"id" : "obj-118",
					"maxclass" : "newobj",
					"numinlets" : 0,
					"numoutlets" : 1,
					"outlettype" : [ "" ],
					"patching_rect" : [ 747.0, 567.484317898750305, 51.0, 22.0 ],
					"text" : "r slider1"
				}

			}
, 			{
				"box" : 				{
					"id" : "obj-117",
					"maxclass" : "newobj",
					"numinlets" : 0,
					"numoutlets" : 1,
					"outlettype" : [ "" ],
					"patching_rect" : [ 886.348556250333786, 567.484317898750305, 51.0, 22.0 ],
					"text" : "r slider2"
				}

			}
, 			{
				"box" : 				{
					"id" : "obj-100",
					"maxclass" : "button",
					"numinlets" : 1,
					"numoutlets" : 1,
					"outlettype" : [ "bang" ],
					"parameter_enable" : 0,
					"patching_rect" : [ 553.982711136341095, 94.9259392619133, 24.0, 24.0 ],
					"presentation" : 1,
					"presentation_rect" : [ -0.583346962928772, -0.333343923091888, 24.0, 24.0 ]
				}

			}
, 			{
				"box" : 				{
					"id" : "obj-68",
					"maxclass" : "newobj",
					"numinlets" : 2,
					"numoutlets" : 1,
					"outlettype" : [ "float" ],
					"patching_rect" : [ 698.318534016609192, 307.020087003707886, 29.5, 22.0 ],
					"text" : "/ 2."
				}

			}
, 			{
				"box" : 				{
					"id" : "obj-61",
					"maxclass" : "newobj",
					"numinlets" : 2,
					"numoutlets" : 1,
					"outlettype" : [ "float" ],
					"patching_rect" : [ 610.448142826557159, 357.41866660118103, 29.5, 22.0 ],
					"text" : "- 0."
				}

			}
, 			{
				"box" : 				{
					"id" : "obj-60",
					"maxclass" : "newobj",
					"numinlets" : 2,
					"numoutlets" : 1,
					"outlettype" : [ "float" ],
					"patching_rect" : [ 687.818534016609192, 357.41866660118103, 29.5, 22.0 ],
					"text" : "+ 0."
				}

			}
, 			{
				"box" : 				{
					"id" : "obj-43",
					"maxclass" : "newobj",
					"numinlets" : 2,
					"numoutlets" : 1,
					"outlettype" : [ "float" ],
					"patching_rect" : [ 608.579470694065094, 275.005034387111664, 39.0, 22.0 ],
					"text" : "/ 100."
				}

			}
, 			{
				"box" : 				{
					"id" : "obj-42",
					"maxclass" : "newobj",
					"numinlets" : 2,
					"numoutlets" : 1,
					"outlettype" : [ "float" ],
					"patching_rect" : [ 698.318534016609192, 275.005034387111664, 39.0, 22.0 ],
					"text" : "/ 100."
				}

			}
, 			{
				"box" : 				{
					"bgcolor" : [ 0.494117647058824, 0.023529411764706, 0.023529411764706, 0.72 ],
					"color" : [ 0.0, 0.0, 0.0, 1.0 ],
					"horizontaltracking" : 3378.503401360544103,
					"id" : "obj-25",
					"maxclass" : "pictslider",
					"numinlets" : 2,
					"numoutlets" : 2,
					"outlettype" : [ "int", "int" ],
					"parameter_enable" : 0,
					"patching_rect" : [ 608.579470694065094, 168.119094491004944, 108.739063322544098, 98.14814817905426 ],
					"presentation" : 1,
					"presentation_rect" : [ -2.366667479276657, 23.685164570808411, 271.07240104675293, 23.64814817905426 ],
					"rightvalue" : 337800,
					"topvalue" : 337800,
					"verticaltracking" : 3378.503401360544103
				}

			}
, 			{
				"box" : 				{
					"id" : "obj-10",
					"maxclass" : "newobj",
					"numinlets" : 2,
					"numoutlets" : 1,
					"outlettype" : [ "bang" ],
					"patching_rect" : [ 68.500019340625727, 634.222225785255432, 35.0, 22.0 ],
					"text" : "del 1"
				}

			}
, 			{
				"box" : 				{
					"id" : "obj-487",
					"maxclass" : "newobj",
					"numinlets" : 1,
					"numoutlets" : 1,
					"outlettype" : [ "" ],
					"patching_rect" : [ 646.5, 1052.333319842815399, 77.0, 22.0 ],
					"text" : "prepend size"
				}

			}
, 			{
				"box" : 				{
					"id" : "obj-486",
					"maxclass" : "newobj",
					"numinlets" : 0,
					"numoutlets" : 1,
					"outlettype" : [ "" ],
					"patching_rect" : [ 646.5, 1021.444476127624512, 130.0, 22.0 ],
					"text" : "r ira.sampler.buffersize"
				}

			}
, 			{
				"box" : 				{
					"id" : "obj-483",
					"maxclass" : "newobj",
					"numinlets" : 1,
					"numoutlets" : 0,
					"patching_rect" : [ 181.494470982662165, 671.600003838539124, 96.0, 22.0 ],
					"text" : "s ira.sampler.set"
				}

			}
, 			{
				"box" : 				{
					"id" : "obj-482",
					"maxclass" : "newobj",
					"numinlets" : 0,
					"numoutlets" : 1,
					"outlettype" : [ "" ],
					"patching_rect" : [ 779.300013184547424, 943.600009441375732, 94.0, 22.0 ],
					"text" : "r ira.sampler.set"
				}

			}
, 			{
				"box" : 				{
					"id" : "obj-478",
					"maxclass" : "newobj",
					"numinlets" : 0,
					"numoutlets" : 1,
					"outlettype" : [ "" ],
					"patching_rect" : [ 718.707422137260437, 518.770371437072754, 130.0, 22.0 ],
					"text" : "r ira.sampler.buffersize"
				}

			}
, 			{
				"box" : 				{
					"id" : "obj-477",
					"maxclass" : "newobj",
					"numinlets" : 1,
					"numoutlets" : 0,
					"patching_rect" : [ 131.500019340625727, 703.622233808040619, 132.0, 22.0 ],
					"text" : "s ira.sampler.buffersize"
				}

			}
, 			{
				"box" : 				{
					"id" : "obj-458",
					"maxclass" : "newobj",
					"numinlets" : 2,
					"numoutlets" : 2,
					"outlettype" : [ "", "" ],
					"patching_rect" : [ 955.466681063175201, 1012.540196478366852, 35.0, 22.0 ],
					"text" : "zl.rot"
				}

			}
, 			{
				"box" : 				{
					"id" : "obj-457",
					"maxclass" : "newobj",
					"numinlets" : 2,
					"numoutlets" : 3,
					"outlettype" : [ "", "float", "" ],
					"patcher" : 					{
						"fileversion" : 1,
						"appversion" : 						{
							"major" : 8,
							"minor" : 1,
							"revision" : 5,
							"architecture" : "x64",
							"modernui" : 1
						}
,
						"classnamespace" : "box",
						"rect" : [ 672.0, 467.0, 570.0, 299.0 ],
						"bglocked" : 0,
						"openinpresentation" : 0,
						"default_fontsize" : 12.0,
						"default_fontface" : 0,
						"default_fontname" : "Arial",
						"gridonopen" : 1,
						"gridsize" : [ 15.0, 15.0 ],
						"gridsnaponopen" : 1,
						"objectsnaponopen" : 1,
						"statusbarvisible" : 2,
						"toolbarvisible" : 1,
						"lefttoolbarpinned" : 0,
						"toptoolbarpinned" : 0,
						"righttoolbarpinned" : 0,
						"bottomtoolbarpinned" : 0,
						"toolbars_unpinned_last_save" : 0,
						"tallnewobj" : 0,
						"boxanimatetime" : 200,
						"enablehscroll" : 1,
						"enablevscroll" : 1,
						"devicewidth" : 0.0,
						"description" : "",
						"digest" : "",
						"tags" : "",
						"style" : "",
						"subpatcher_template" : "",
						"assistshowspatchername" : 0,
						"boxes" : [ 							{
								"box" : 								{
									"id" : "obj-15",
									"maxclass" : "newobj",
									"numinlets" : 2,
									"numoutlets" : 1,
									"outlettype" : [ "float" ],
									"patching_rect" : [ 329.49086058139801, 140.466666877269745, 36.0, 22.0 ],
									"text" : "+ 0.1"
								}

							}
, 							{
								"box" : 								{
									"id" : "obj-9",
									"linecount" : 3,
									"maxclass" : "message",
									"numinlets" : 2,
									"numoutlets" : 1,
									"outlettype" : [ "" ],
									"patching_rect" : [ 399.99086058139801, 801.0, 50.0, 49.0 ],
									"text" : "0. 3378.503401"
								}

							}
, 							{
								"box" : 								{
									"id" : "obj-4",
									"maxclass" : "newobj",
									"numinlets" : 0,
									"numoutlets" : 1,
									"outlettype" : [ "" ],
									"patching_rect" : [ 74.49086058139801, 365.417198240756989, 130.0, 22.0 ],
									"text" : "r ira.sampler.buffersize"
								}

							}
, 							{
								"box" : 								{
									"id" : "obj-3",
									"maxclass" : "newobj",
									"numinlets" : 0,
									"numoutlets" : 1,
									"outlettype" : [ "" ],
									"patching_rect" : [ 460.99086058139801, 336.417198240756989, 130.0, 22.0 ],
									"text" : "r ira.sampler.buffersize"
								}

							}
, 							{
								"box" : 								{
									"comment" : "",
									"id" : "obj-5",
									"index" : 2,
									"maxclass" : "outlet",
									"numinlets" : 1,
									"numoutlets" : 0,
									"patching_rect" : [ 339.000000059604645, 437.596743524074554, 30.0, 30.0 ]
								}

							}
, 							{
								"box" : 								{
									"comment" : "",
									"id" : "obj-2",
									"index" : 3,
									"maxclass" : "outlet",
									"numinlets" : 1,
									"numoutlets" : 0,
									"patching_rect" : [ 360.690860867500305, 801.0, 30.0, 30.0 ]
								}

							}
, 							{
								"box" : 								{
									"id" : "obj-47",
									"maxclass" : "newobj",
									"numinlets" : 1,
									"numoutlets" : 0,
									"patching_rect" : [ 218.899999886751175, 236.811138153076172, 53.0, 22.0 ],
									"text" : "s lower?"
								}

							}
, 							{
								"box" : 								{
									"id" : "obj-46",
									"maxclass" : "newobj",
									"numinlets" : 1,
									"numoutlets" : 0,
									"patching_rect" : [ 417.0, 236.811138153076172, 58.0, 22.0 ],
									"text" : "s higher?"
								}

							}
, 							{
								"box" : 								{
									"id" : "obj-478",
									"maxclass" : "newobj",
									"numinlets" : 0,
									"numoutlets" : 1,
									"outlettype" : [ "" ],
									"patching_rect" : [ 329.49086058139801, 54.0, 130.0, 22.0 ],
									"text" : "r ira.sampler.buffersize"
								}

							}
, 							{
								"box" : 								{
									"id" : "obj-452",
									"maxclass" : "newobj",
									"numinlets" : 1,
									"numoutlets" : 1,
									"outlettype" : [ "int" ],
									"patching_rect" : [ 598.99086058139801, 336.417198240756989, 22.0, 22.0 ],
									"text" : "t 0"
								}

							}
, 							{
								"box" : 								{
									"id" : "obj-451",
									"maxclass" : "newobj",
									"numinlets" : 2,
									"numoutlets" : 2,
									"outlettype" : [ "bang", "" ],
									"patching_rect" : [ 318.99086058139801, 266.811139047145844, 34.0, 22.0 ],
									"text" : "sel 1"
								}

							}
, 							{
								"box" : 								{
									"id" : "obj-450",
									"maxclass" : "newobj",
									"numinlets" : 1,
									"numoutlets" : 2,
									"outlettype" : [ "bang", "int" ],
									"patching_rect" : [ 318.99086058139801, 203.158867478370667, 60.700000286102295, 22.0 ],
									"text" : "t b i"
								}

							}
, 							{
								"box" : 								{
									"id" : "obj-449",
									"maxclass" : "newobj",
									"numinlets" : 2,
									"numoutlets" : 1,
									"outlettype" : [ "int" ],
									"patching_rect" : [ 318.99086058139801, 236.811138153076172, 29.5, 22.0 ],
									"text" : "&&"
								}

							}
, 							{
								"box" : 								{
									"id" : "obj-444",
									"maxclass" : "newobj",
									"numinlets" : 1,
									"numoutlets" : 2,
									"outlettype" : [ "float", "float" ],
									"patching_rect" : [ 403.381721675395966, 136.94446986913681, 29.5, 22.0 ],
									"text" : "t f f"
								}

							}
, 							{
								"box" : 								{
									"id" : "obj-445",
									"maxclass" : "newobj",
									"numinlets" : 2,
									"numoutlets" : 1,
									"outlettype" : [ "int" ],
									"patching_rect" : [ 360.690860867500305, 236.811138153076172, 29.5, 22.0 ],
									"text" : "+ 1"
								}

							}
, 							{
								"box" : 								{
									"id" : "obj-446",
									"maxclass" : "newobj",
									"numinlets" : 2,
									"numoutlets" : 2,
									"outlettype" : [ "", "" ],
									"patching_rect" : [ 360.690860867500305, 298.663398385047913, 61.69086080789566, 22.0 ],
									"text" : "gate 2"
								}

							}
, 							{
								"box" : 								{
									"id" : "obj-447",
									"maxclass" : "newobj",
									"numinlets" : 2,
									"numoutlets" : 1,
									"outlettype" : [ "int" ],
									"patching_rect" : [ 318.99086058139801, 176.411136746406555, 29.5, 22.0 ],
									"text" : "< 0."
								}

							}
, 							{
								"box" : 								{
									"id" : "obj-443",
									"maxclass" : "newobj",
									"numinlets" : 1,
									"numoutlets" : 2,
									"outlettype" : [ "float", "float" ],
									"patching_rect" : [ 271.79999977350235, 109.0, 29.5, 22.0 ],
									"text" : "t f f"
								}

							}
, 							{
								"box" : 								{
									"id" : "obj-442",
									"maxclass" : "newobj",
									"numinlets" : 2,
									"numoutlets" : 1,
									"outlettype" : [ "int" ],
									"patching_rect" : [ 282.29999977350235, 236.811138153076172, 29.5, 22.0 ],
									"text" : "+ 1"
								}

							}
, 							{
								"box" : 								{
									"id" : "obj-440",
									"maxclass" : "newobj",
									"numinlets" : 2,
									"numoutlets" : 2,
									"outlettype" : [ "", "" ],
									"patching_rect" : [ 200.0, 302.663398385047913, 90.79999977350235, 22.0 ],
									"text" : "gate 2"
								}

							}
, 							{
								"box" : 								{
									"id" : "obj-438",
									"maxclass" : "newobj",
									"numinlets" : 2,
									"numoutlets" : 1,
									"outlettype" : [ "int" ],
									"patching_rect" : [ 282.29999977350235, 140.466666877269745, 40.0, 22.0 ],
									"text" : "> -0.1"
								}

							}
, 							{
								"box" : 								{
									"id" : "obj-421",
									"maxclass" : "newobj",
									"numinlets" : 1,
									"numoutlets" : 1,
									"outlettype" : [ "int" ],
									"patching_rect" : [ 434.290862441062927, 445.596743524074554, 19.0, 22.0 ],
									"text" : "t i"
								}

							}
, 							{
								"box" : 								{
									"id" : "obj-419",
									"maxclass" : "newobj",
									"numinlets" : 2,
									"numoutlets" : 2,
									"outlettype" : [ "", "" ],
									"patching_rect" : [ 215.766127347946167, 705.948732614517212, 63.543011784553528, 22.0 ],
									"text" : "gate 2"
								}

							}
, 							{
								"box" : 								{
									"id" : "obj-399",
									"maxclass" : "newobj",
									"numinlets" : 1,
									"numoutlets" : 2,
									"outlettype" : [ "float", "int" ],
									"patching_rect" : [ 271.79999977350235, 330.417198240756989, 29.5, 22.0 ],
									"text" : "t f 1"
								}

							}
, 							{
								"box" : 								{
									"id" : "obj-398",
									"maxclass" : "newobj",
									"numinlets" : 2,
									"numoutlets" : 2,
									"outlettype" : [ "", "" ],
									"patching_rect" : [ 249.0, 437.596743524074554, 42.0, 22.0 ],
									"text" : "gate 2"
								}

							}
, 							{
								"box" : 								{
									"id" : "obj-396",
									"maxclass" : "newobj",
									"numinlets" : 2,
									"numoutlets" : 2,
									"outlettype" : [ "", "" ],
									"patching_rect" : [ 260.309139132499695, 739.610413074493408, 70.300000786781311, 22.0 ],
									"text" : "zl.reg"
								}

							}
, 							{
								"box" : 								{
									"id" : "obj-395",
									"maxclass" : "newobj",
									"numinlets" : 2,
									"numoutlets" : 1,
									"outlettype" : [ "" ],
									"patching_rect" : [ 200.0, 437.596743524074554, 47.0, 22.0 ],
									"text" : "pack f f"
								}

							}
, 							{
								"box" : 								{
									"id" : "obj-390",
									"maxclass" : "newobj",
									"numinlets" : 2,
									"numoutlets" : 1,
									"outlettype" : [ "float" ],
									"patching_rect" : [ 200.0, 408.628299713134766, 29.5, 22.0 ],
									"text" : "+ 0."
								}

							}
, 							{
								"box" : 								{
									"id" : "obj-388",
									"maxclass" : "newobj",
									"numinlets" : 1,
									"numoutlets" : 3,
									"outlettype" : [ "float", "int", "int" ],
									"patching_rect" : [ 200.0, 330.417198240756989, 68.0, 22.0 ],
									"text" : "t f 0 2"
								}

							}
, 							{
								"box" : 								{
									"id" : "obj-341",
									"maxclass" : "newobj",
									"numinlets" : 2,
									"numoutlets" : 2,
									"outlettype" : [ "", "" ],
									"patching_rect" : [ 215.766127347946167, 739.610413074493408, 38.0, 22.0 ],
									"text" : "zl.reg"
								}

							}
, 							{
								"box" : 								{
									"id" : "obj-340",
									"maxclass" : "newobj",
									"numinlets" : 1,
									"numoutlets" : 3,
									"outlettype" : [ "", "bang", "" ],
									"patching_rect" : [ 249.0, 466.74775367975235, 40.0, 22.0 ],
									"text" : "t l b l"
								}

							}
, 							{
								"box" : 								{
									"id" : "obj-336",
									"maxclass" : "newobj",
									"numinlets" : 1,
									"numoutlets" : 2,
									"outlettype" : [ "float", "float" ],
									"patching_rect" : [ 270.0, 532.11139053106308, 29.5, 22.0 ],
									"text" : "t f f"
								}

							}
, 							{
								"box" : 								{
									"id" : "obj-334",
									"maxclass" : "newobj",
									"numinlets" : 2,
									"numoutlets" : 1,
									"outlettype" : [ "float" ],
									"patching_rect" : [ 270.809139132499695, 636.610809624195099, 29.5, 22.0 ],
									"text" : "* 0."
								}

							}
, 							{
								"box" : 								{
									"id" : "obj-331",
									"maxclass" : "newobj",
									"numinlets" : 2,
									"numoutlets" : 1,
									"outlettype" : [ "int" ],
									"patching_rect" : [ 281.309139132499695, 602.452445328235626, 32.0, 22.0 ],
									"text" : "!= 0."
								}

							}
, 							{
								"box" : 								{
									"id" : "obj-325",
									"maxclass" : "newobj",
									"numinlets" : 2,
									"numoutlets" : 1,
									"outlettype" : [ "" ],
									"patching_rect" : [ 270.0, 504.12399834394455, 79.0, 22.0 ],
									"text" : "expr $f2 - $f1"
								}

							}
, 							{
								"box" : 								{
									"id" : "obj-323",
									"maxclass" : "newobj",
									"numinlets" : 2,
									"numoutlets" : 1,
									"outlettype" : [ "bang" ],
									"patching_rect" : [ 260.309139132499695, 667.18528938293457, 29.5, 22.0 ],
									"text" : "del"
								}

							}
, 							{
								"box" : 								{
									"id" : "obj-320",
									"maxclass" : "newobj",
									"numinlets" : 2,
									"numoutlets" : 1,
									"outlettype" : [ "" ],
									"patching_rect" : [ 371.490861654281616, 437.596743524074554, 45.0, 22.0 ],
									"text" : "pak 0 f"
								}

							}
, 							{
								"box" : 								{
									"id" : "obj-319",
									"maxclass" : "newobj",
									"numinlets" : 2,
									"numoutlets" : 1,
									"outlettype" : [ "float" ],
									"patching_rect" : [ 397.49086058139801, 400.434067606925964, 82.5, 22.0 ],
									"text" : "- 0."
								}

							}
, 							{
								"box" : 								{
									"id" : "obj-318",
									"maxclass" : "newobj",
									"numinlets" : 1,
									"numoutlets" : 3,
									"outlettype" : [ "bang", "float", "int" ],
									"patching_rect" : [ 360.690860867500305, 336.417198240756989, 92.600001573562622, 22.0 ],
									"text" : "t b f 1"
								}

							}
, 							{
								"box" : 								{
									"id" : "obj-315",
									"maxclass" : "newobj",
									"numinlets" : 2,
									"numoutlets" : 1,
									"outlettype" : [ "float" ],
									"patching_rect" : [ 360.690860867500305, 369.434067606925964, 105.5, 22.0 ],
									"text" : "f"
								}

							}
, 							{
								"box" : 								{
									"id" : "obj-313",
									"maxclass" : "newobj",
									"numinlets" : 2,
									"numoutlets" : 1,
									"outlettype" : [ "" ],
									"patching_rect" : [ 272.0, 408.628299713134766, 65.000000059604645, 22.0 ],
									"text" : "pack f f"
								}

							}
, 							{
								"box" : 								{
									"id" : "obj-312",
									"maxclass" : "newobj",
									"numinlets" : 1,
									"numoutlets" : 2,
									"outlettype" : [ "float", "float" ],
									"patching_rect" : [ 271.79999977350235, 83.0, 150.581721901893616, 22.0 ],
									"text" : "unpack f f"
								}

							}
, 							{
								"box" : 								{
									"comment" : "",
									"id" : "obj-454",
									"index" : 1,
									"maxclass" : "inlet",
									"numinlets" : 0,
									"numoutlets" : 1,
									"outlettype" : [ "" ],
									"patching_rect" : [ 271.79999977350235, 46.0, 30.0, 30.0 ]
								}

							}
, 							{
								"box" : 								{
									"comment" : "",
									"id" : "obj-455",
									"index" : 2,
									"maxclass" : "inlet",
									"numinlets" : 0,
									"numoutlets" : 1,
									"outlettype" : [ "" ],
									"patching_rect" : [ 294.309139132499695, 558.000024837490059, 30.0, 30.0 ]
								}

							}
, 							{
								"box" : 								{
									"comment" : "",
									"id" : "obj-456",
									"index" : 1,
									"maxclass" : "outlet",
									"numinlets" : 1,
									"numoutlets" : 0,
									"patching_rect" : [ 215.766127347946167, 532.11139053106308, 30.0, 30.0 ]
								}

							}
 ],
						"lines" : [ 							{
								"patchline" : 								{
									"destination" : [ "obj-447", 1 ],
									"source" : [ "obj-15", 0 ]
								}

							}
, 							{
								"patchline" : 								{
									"destination" : [ "obj-315", 1 ],
									"order" : 1,
									"source" : [ "obj-3", 0 ]
								}

							}
, 							{
								"patchline" : 								{
									"destination" : [ "obj-319", 1 ],
									"order" : 0,
									"source" : [ "obj-3", 0 ]
								}

							}
, 							{
								"patchline" : 								{
									"destination" : [ "obj-443", 0 ],
									"source" : [ "obj-312", 0 ]
								}

							}
, 							{
								"patchline" : 								{
									"destination" : [ "obj-444", 0 ],
									"source" : [ "obj-312", 1 ]
								}

							}
, 							{
								"patchline" : 								{
									"destination" : [ "obj-398", 1 ],
									"source" : [ "obj-313", 0 ]
								}

							}
, 							{
								"patchline" : 								{
									"destination" : [ "obj-313", 1 ],
									"source" : [ "obj-315", 0 ]
								}

							}
, 							{
								"patchline" : 								{
									"destination" : [ "obj-315", 0 ],
									"source" : [ "obj-318", 0 ]
								}

							}
, 							{
								"patchline" : 								{
									"destination" : [ "obj-319", 0 ],
									"source" : [ "obj-318", 1 ]
								}

							}
, 							{
								"patchline" : 								{
									"destination" : [ "obj-421", 0 ],
									"source" : [ "obj-318", 2 ]
								}

							}
, 							{
								"patchline" : 								{
									"destination" : [ "obj-320", 1 ],
									"order" : 0,
									"source" : [ "obj-319", 0 ]
								}

							}
, 							{
								"patchline" : 								{
									"destination" : [ "obj-5", 0 ],
									"order" : 1,
									"source" : [ "obj-319", 0 ]
								}

							}
, 							{
								"patchline" : 								{
									"destination" : [ "obj-341", 1 ],
									"midpoints" : [ 380.990861654281616, 732.610611349344254, 244.266127347946167, 732.610611349344254 ],
									"source" : [ "obj-320", 0 ]
								}

							}
, 							{
								"patchline" : 								{
									"destination" : [ "obj-419", 1 ],
									"source" : [ "obj-323", 0 ]
								}

							}
, 							{
								"patchline" : 								{
									"destination" : [ "obj-336", 0 ],
									"source" : [ "obj-325", 0 ]
								}

							}
, 							{
								"patchline" : 								{
									"destination" : [ "obj-334", 1 ],
									"source" : [ "obj-331", 0 ]
								}

							}
, 							{
								"patchline" : 								{
									"destination" : [ "obj-323", 1 ],
									"source" : [ "obj-334", 0 ]
								}

							}
, 							{
								"patchline" : 								{
									"destination" : [ "obj-331", 0 ],
									"source" : [ "obj-336", 1 ]
								}

							}
, 							{
								"patchline" : 								{
									"destination" : [ "obj-334", 0 ],
									"source" : [ "obj-336", 0 ]
								}

							}
, 							{
								"patchline" : 								{
									"destination" : [ "obj-323", 0 ],
									"source" : [ "obj-340", 1 ]
								}

							}
, 							{
								"patchline" : 								{
									"destination" : [ "obj-325", 0 ],
									"source" : [ "obj-340", 2 ]
								}

							}
, 							{
								"patchline" : 								{
									"destination" : [ "obj-456", 0 ],
									"order" : 1,
									"source" : [ "obj-340", 0 ]
								}

							}
, 							{
								"patchline" : 								{
									"destination" : [ "obj-9", 1 ],
									"order" : 0,
									"source" : [ "obj-340", 0 ]
								}

							}
, 							{
								"patchline" : 								{
									"destination" : [ "obj-2", 0 ],
									"midpoints" : [ 225.266127347946167, 787.805206537246704, 370.190860867500305, 787.805206537246704 ],
									"source" : [ "obj-341", 0 ]
								}

							}
, 							{
								"patchline" : 								{
									"destination" : [ "obj-313", 0 ],
									"source" : [ "obj-388", 1 ]
								}

							}
, 							{
								"patchline" : 								{
									"destination" : [ "obj-390", 0 ],
									"source" : [ "obj-388", 0 ]
								}

							}
, 							{
								"patchline" : 								{
									"destination" : [ "obj-398", 0 ],
									"order" : 1,
									"source" : [ "obj-388", 2 ]
								}

							}
, 							{
								"patchline" : 								{
									"destination" : [ "obj-421", 0 ],
									"order" : 0,
									"source" : [ "obj-388", 2 ]
								}

							}
, 							{
								"patchline" : 								{
									"destination" : [ "obj-395", 0 ],
									"source" : [ "obj-390", 0 ]
								}

							}
, 							{
								"patchline" : 								{
									"destination" : [ "obj-340", 0 ],
									"source" : [ "obj-395", 0 ]
								}

							}
, 							{
								"patchline" : 								{
									"destination" : [ "obj-2", 0 ],
									"midpoints" : [ 269.809139132499695, 774.805206537246704, 370.190860867500305, 774.805206537246704 ],
									"source" : [ "obj-396", 0 ]
								}

							}
, 							{
								"patchline" : 								{
									"destination" : [ "obj-340", 0 ],
									"source" : [ "obj-398", 0 ]
								}

							}
, 							{
								"patchline" : 								{
									"destination" : [ "obj-396", 1 ],
									"midpoints" : [ 281.5, 464.272248566150665, 321.109139919281006, 464.272248566150665 ],
									"source" : [ "obj-398", 1 ]
								}

							}
, 							{
								"patchline" : 								{
									"destination" : [ "obj-313", 0 ],
									"source" : [ "obj-399", 0 ]
								}

							}
, 							{
								"patchline" : 								{
									"destination" : [ "obj-398", 0 ],
									"midpoints" : [ 291.79999977350235, 389.86409917473793, 258.5, 389.86409917473793 ],
									"source" : [ "obj-399", 1 ]
								}

							}
, 							{
								"patchline" : 								{
									"destination" : [ "obj-390", 1 ],
									"midpoints" : [ 83.99086058139801, 400.022748976945877, 220.0, 400.022748976945877 ],
									"order" : 1,
									"source" : [ "obj-4", 0 ]
								}

							}
, 							{
								"patchline" : 								{
									"destination" : [ "obj-395", 1 ],
									"midpoints" : [ 83.99086058139801, 394.506970882415771, 237.5, 394.506970882415771 ],
									"order" : 0,
									"source" : [ "obj-4", 0 ]
								}

							}
, 							{
								"patchline" : 								{
									"destination" : [ "obj-341", 0 ],
									"source" : [ "obj-419", 0 ]
								}

							}
, 							{
								"patchline" : 								{
									"destination" : [ "obj-396", 0 ],
									"source" : [ "obj-419", 1 ]
								}

							}
, 							{
								"patchline" : 								{
									"destination" : [ "obj-419", 0 ],
									"midpoints" : [ 443.790862441062927, 698.739036977291107, 225.266127347946167, 698.739036977291107 ],
									"source" : [ "obj-421", 0 ]
								}

							}
, 							{
								"patchline" : 								{
									"destination" : [ "obj-442", 0 ],
									"order" : 1,
									"source" : [ "obj-438", 0 ]
								}

							}
, 							{
								"patchline" : 								{
									"destination" : [ "obj-449", 0 ],
									"midpoints" : [ 291.79999977350235, 231.111137866973877, 328.49086058139801, 231.111137866973877 ],
									"order" : 0,
									"source" : [ "obj-438", 0 ]
								}

							}
, 							{
								"patchline" : 								{
									"destination" : [ "obj-47", 0 ],
									"order" : 2,
									"source" : [ "obj-438", 0 ]
								}

							}
, 							{
								"patchline" : 								{
									"destination" : [ "obj-388", 0 ],
									"source" : [ "obj-440", 0 ]
								}

							}
, 							{
								"patchline" : 								{
									"destination" : [ "obj-399", 0 ],
									"source" : [ "obj-440", 1 ]
								}

							}
, 							{
								"patchline" : 								{
									"destination" : [ "obj-440", 0 ],
									"source" : [ "obj-442", 0 ]
								}

							}
, 							{
								"patchline" : 								{
									"destination" : [ "obj-438", 0 ],
									"source" : [ "obj-443", 1 ]
								}

							}
, 							{
								"patchline" : 								{
									"destination" : [ "obj-440", 1 ],
									"source" : [ "obj-443", 0 ]
								}

							}
, 							{
								"patchline" : 								{
									"destination" : [ "obj-446", 1 ],
									"source" : [ "obj-444", 0 ]
								}

							}
, 							{
								"patchline" : 								{
									"destination" : [ "obj-447", 0 ],
									"source" : [ "obj-444", 1 ]
								}

							}
, 							{
								"patchline" : 								{
									"destination" : [ "obj-446", 0 ],
									"source" : [ "obj-445", 0 ]
								}

							}
, 							{
								"patchline" : 								{
									"destination" : [ "obj-313", 1 ],
									"midpoints" : [ 412.881721675395966, 324.812514573335648, 327.500000059604645, 324.812514573335648 ],
									"order" : 1,
									"source" : [ "obj-446", 1 ]
								}

							}
, 							{
								"patchline" : 								{
									"destination" : [ "obj-318", 0 ],
									"source" : [ "obj-446", 0 ]
								}

							}
, 							{
								"patchline" : 								{
									"destination" : [ "obj-5", 0 ],
									"midpoints" : [ 412.881721675395966, 330.145849049091339, 348.500000059604645, 330.145849049091339 ],
									"order" : 0,
									"source" : [ "obj-446", 1 ]
								}

							}
, 							{
								"patchline" : 								{
									"destination" : [ "obj-450", 0 ],
									"source" : [ "obj-447", 0 ]
								}

							}
, 							{
								"patchline" : 								{
									"destination" : [ "obj-451", 0 ],
									"source" : [ "obj-449", 0 ]
								}

							}
, 							{
								"patchline" : 								{
									"destination" : [ "obj-445", 0 ],
									"order" : 1,
									"source" : [ "obj-450", 1 ]
								}

							}
, 							{
								"patchline" : 								{
									"destination" : [ "obj-449", 1 ],
									"order" : 2,
									"source" : [ "obj-450", 1 ]
								}

							}
, 							{
								"patchline" : 								{
									"destination" : [ "obj-449", 0 ],
									"source" : [ "obj-450", 0 ]
								}

							}
, 							{
								"patchline" : 								{
									"destination" : [ "obj-46", 0 ],
									"order" : 0,
									"source" : [ "obj-450", 1 ]
								}

							}
, 							{
								"patchline" : 								{
									"destination" : [ "obj-452", 0 ],
									"midpoints" : [ 328.49086058139801, 295.114168643951416, 608.49086058139801, 295.114168643951416 ],
									"source" : [ "obj-451", 0 ]
								}

							}
, 							{
								"patchline" : 								{
									"destination" : [ "obj-421", 0 ],
									"source" : [ "obj-452", 0 ]
								}

							}
, 							{
								"patchline" : 								{
									"destination" : [ "obj-312", 0 ],
									"source" : [ "obj-454", 0 ]
								}

							}
, 							{
								"patchline" : 								{
									"destination" : [ "obj-331", 1 ],
									"source" : [ "obj-455", 0 ]
								}

							}
, 							{
								"patchline" : 								{
									"destination" : [ "obj-15", 0 ],
									"source" : [ "obj-478", 0 ]
								}

							}
 ]
					}
,
					"patching_rect" : [ 832.133345305919647, 984.576353967189789, 142.333335757255554, 22.0 ],
					"saved_object_attributes" : 					{
						"description" : "",
						"digest" : "",
						"globalpatchername" : "",
						"tags" : ""
					}
,
					"text" : "p Highlow"
				}

			}
, 			{
				"box" : 				{
					"id" : "obj-328",
					"maxclass" : "newobj",
					"numinlets" : 1,
					"numoutlets" : 2,
					"outlettype" : [ "", "" ],
					"patching_rect" : [ 747.0, 943.600009441375732, 29.5, 22.0 ],
					"text" : "t l l"
				}

			}
, 			{
				"box" : 				{
					"id" : "obj-296",
					"maxclass" : "newobj",
					"numinlets" : 1,
					"numoutlets" : 3,
					"outlettype" : [ "bang", "float", "int" ],
					"patching_rect" : [ 762.25, 1207.693094789981842, 40.0, 22.0 ],
					"text" : "t b f 0"
				}

			}
, 			{
				"box" : 				{
					"id" : "obj-294",
					"maxclass" : "message",
					"numinlets" : 2,
					"numoutlets" : 1,
					"outlettype" : [ "" ],
					"patching_rect" : [ 762.0, 1257.243472874164581, 29.5, 22.0 ],
					"text" : "0 1"
				}

			}
, 			{
				"box" : 				{
					"id" : "obj-291",
					"maxclass" : "newobj",
					"numinlets" : 1,
					"numoutlets" : 1,
					"outlettype" : [ "" ],
					"patching_rect" : [ 783.25, 1294.285065650939941, 96.0, 22.0 ],
					"text" : "prepend triggers"
				}

			}
, 			{
				"box" : 				{
					"id" : "obj-288",
					"maxclass" : "newobj",
					"numinlets" : 2,
					"numoutlets" : 1,
					"outlettype" : [ "" ],
					"patching_rect" : [ 747.0, 887.333349108695984, 158.300012469291687, 22.0 ],
					"text" : "join 2"
				}

			}
, 			{
				"box" : 				{
					"id" : "obj-272",
					"maxclass" : "newobj",
					"numinlets" : 3,
					"numoutlets" : 2,
					"outlettype" : [ "float", "float" ],
					"patching_rect" : [ 587.448142826557159, 600.521370232105255, 66.148147761821747, 22.0 ],
					"text" : "split 0."
				}

			}
, 			{
				"box" : 				{
					"id" : "obj-271",
					"maxclass" : "newobj",
					"numinlets" : 3,
					"numoutlets" : 2,
					"outlettype" : [ "float", "float" ],
					"patching_rect" : [ 664.818534016609192, 600.521370232105255, 72.888888120651245, 22.0 ],
					"text" : "split 0."
				}

			}
, 			{
				"box" : 				{
					"id" : "obj-260",
					"maxclass" : "newobj",
					"numinlets" : 2,
					"numoutlets" : 1,
					"outlettype" : [ "int" ],
					"patching_rect" : [ 587.448142826557159, 425.20741206407547, 29.5, 22.0 ],
					"text" : "+ 1"
				}

			}
, 			{
				"box" : 				{
					"id" : "obj-259",
					"maxclass" : "newobj",
					"numinlets" : 2,
					"numoutlets" : 2,
					"outlettype" : [ "", "" ],
					"patching_rect" : [ 664.818534016609192, 518.770371437072754, 42.0, 22.0 ],
					"text" : "gate 2"
				}

			}
, 			{
				"box" : 				{
					"id" : "obj-258",
					"maxclass" : "newobj",
					"numinlets" : 2,
					"numoutlets" : 2,
					"outlettype" : [ "", "" ],
					"patching_rect" : [ 587.448142826557159, 515.066667795181274, 42.0, 22.0 ],
					"text" : "gate 2"
				}

			}
, 			{
				"box" : 				{
					"id" : "obj-254",
					"maxclass" : "toggle",
					"numinlets" : 1,
					"numoutlets" : 1,
					"outlettype" : [ "int" ],
					"parameter_enable" : 0,
					"patching_rect" : [ 913.800013184547424, 943.600009441375732, 24.0, 24.0 ],
					"presentation" : 1,
					"presentation_rect" : [ 241.484409898519516, -0.000010579824447, 24.0, 24.0 ]
				}

			}
, 			{
				"box" : 				{
					"id" : "obj-247",
					"maxclass" : "newobj",
					"numinlets" : 1,
					"numoutlets" : 3,
					"outlettype" : [ "int", "float", "int" ],
					"patching_rect" : [ 552.899996638298035, 463.148151397705078, 40.0, 22.0 ],
					"text" : "t 1 f 0"
				}

			}
, 			{
				"box" : 				{
					"id" : "obj-246",
					"maxclass" : "newobj",
					"numinlets" : 2,
					"numoutlets" : 1,
					"outlettype" : [ "float" ],
					"patching_rect" : [ 499.799996316432953, 1257.243472874164581, 29.5, 22.0 ],
					"text" : "+ 0."
				}

			}
, 			{
				"box" : 				{
					"id" : "obj-243",
					"maxclass" : "newobj",
					"numinlets" : 2,
					"numoutlets" : 1,
					"outlettype" : [ "float" ],
					"patching_rect" : [ 449.066673040390015, 1257.243472874164581, 29.5, 22.0 ],
					"text" : "- 0."
				}

			}
, 			{
				"box" : 				{
					"id" : "obj-200",
					"maxclass" : "newobj",
					"numinlets" : 1,
					"numoutlets" : 3,
					"outlettype" : [ "int", "float", "int" ],
					"patching_rect" : [ 489.299996316432953, 463.148151397705078, 40.0, 22.0 ],
					"text" : "t 1 f 0"
				}

			}
, 			{
				"box" : 				{
					"id" : "obj-194",
					"maxclass" : "newobj",
					"numinlets" : 1,
					"numoutlets" : 1,
					"outlettype" : [ "" ],
					"patching_rect" : [ 544.209808588027954, 1032.340196490287781, 72.0, 22.0 ],
					"text" : "prepend set"
				}

			}
, 			{
				"box" : 				{
					"id" : "obj-157",
					"maxclass" : "newobj",
					"numinlets" : 2,
					"numoutlets" : 1,
					"outlettype" : [ "" ],
					"patching_rect" : [ 544.209808588027954, 730.40000706911087, 32.0, 22.0 ],
					"text" : "gate"
				}

			}
, 			{
				"box" : 				{
					"id" : "obj-142",
					"maxclass" : "newobj",
					"numinlets" : 2,
					"numoutlets" : 1,
					"outlettype" : [ "float" ],
					"patching_rect" : [ 544.209808588027954, 995.576353967189789, 29.5, 22.0 ],
					"text" : "+ 4."
				}

			}
, 			{
				"box" : 				{
					"id" : "obj-134",
					"maxclass" : "newobj",
					"numinlets" : 1,
					"numoutlets" : 2,
					"outlettype" : [ "", "" ],
					"patching_rect" : [ 544.209808588027954, 760.758876025676727, 102.240191459655762, 22.0 ],
					"text" : "t l l"
				}

			}
, 			{
				"box" : 				{
					"id" : "obj-133",
					"maxclass" : "newobj",
					"numinlets" : 2,
					"numoutlets" : 1,
					"outlettype" : [ "float" ],
					"patching_rect" : [ 544.209808588027954, 904.637603938579559, 29.5, 22.0 ],
					"text" : "/ 2."
				}

			}
, 			{
				"box" : 				{
					"id" : "obj-130",
					"maxclass" : "message",
					"numinlets" : 2,
					"numoutlets" : 1,
					"outlettype" : [ "" ],
					"patching_rect" : [ 627.450000047683716, 793.170103847980499, 29.5, 22.0 ],
					"text" : "$1"
				}

			}
, 			{
				"box" : 				{
					"id" : "obj-128",
					"maxclass" : "newobj",
					"numinlets" : 2,
					"numoutlets" : 1,
					"outlettype" : [ "float" ],
					"patching_rect" : [ 544.209808588027954, 965.600009441375732, 29.5, 22.0 ],
					"text" : "+ 0."
				}

			}
, 			{
				"box" : 				{
					"id" : "obj-125",
					"maxclass" : "newobj",
					"numinlets" : 2,
					"numoutlets" : 2,
					"outlettype" : [ "", "" ],
					"patching_rect" : [ 747.0, 912.859822452068329, 185.800013184547424, 22.0 ],
					"text" : "zl.sort"
				}

			}
, 			{
				"box" : 				{
					"id" : "obj-26",
					"maxclass" : "live.text",
					"mode" : 0,
					"numinlets" : 1,
					"numoutlets" : 2,
					"outlettype" : [ "", "" ],
					"parameter_enable" : 1,
					"patching_rect" : [ 579.982711136341095, 155.119094610214233, 23.999999403953552, 32.333333849906921 ],
					"presentation" : 1,
					"presentation_rect" : [ 258.901076287031174, -0.000010579824447, 8.0, 175.149980083107948 ],
					"saved_attribute_attributes" : 					{
						"valueof" : 						{
							"parameter_enum" : [ "val1", "val2" ],
							"parameter_longname" : "live.text",
							"parameter_mmax" : 1,
							"parameter_shortname" : "live.text",
							"parameter_type" : 2
						}

					}
,
					"varname" : "live.text"
				}

			}
, 			{
				"box" : 				{
					"id" : "obj-37",
					"maxclass" : "live.text",
					"mode" : 0,
					"numinlets" : 1,
					"numoutlets" : 2,
					"outlettype" : [ "", "" ],
					"parameter_enable" : 1,
					"patching_rect" : [ 486.0, 160.749989420175552, 23.999999403953552, 32.333333849906921 ],
					"presentation" : 1,
					"presentation_rect" : [ -2.348923712968826, -0.000010579824447, 8.0, 175.149980083107948 ],
					"saved_attribute_attributes" : 					{
						"valueof" : 						{
							"parameter_enum" : [ "val1", "val2" ],
							"parameter_longname" : "live.text[1]",
							"parameter_mmax" : 1,
							"parameter_shortname" : "live.text",
							"parameter_type" : 2
						}

					}
,
					"varname" : "live.text[1]"
				}

			}
, 			{
				"box" : 				{
					"bgcolor" : [ 0.2, 0.2, 0.2, 0.42 ],
					"floatoutput" : 1,
					"id" : "obj-122",
					"knobcolor" : [ 0.996078431372549, 0.0, 0.0, 1.0 ],
					"knobshape" : 5,
					"maxclass" : "slider",
					"numinlets" : 1,
					"numoutlets" : 1,
					"outlettype" : [ "" ],
					"parameter_enable" : 0,
					"patching_rect" : [ 886.348556250333786, 618.020108908414841, 113.317756712436676, 25.66915887594223 ],
					"presentation" : 1,
					"presentation_rect" : [ 0.249986201524734, 47.333312690258026, 265.651090085506439, 19.427801012992859 ],
					"size" : 3378.503401360544103,
					"thickness" : 20.0
				}

			}
, 			{
				"box" : 				{
					"bgcolor" : [ 0.2, 0.2, 0.2, 0.42 ],
					"floatoutput" : 1,
					"id" : "obj-123",
					"knobcolor" : [ 0.996078431372549, 0.0, 0.0, 1.0 ],
					"knobshape" : 5,
					"maxclass" : "slider",
					"numinlets" : 1,
					"numoutlets" : 1,
					"outlettype" : [ "" ],
					"parameter_enable" : 0,
					"patching_rect" : [ 747.0, 618.020108908414841, 113.317756712436676, 25.66915887594223 ],
					"presentation" : 1,
					"presentation_rect" : [ 0.249986201524734, 91.666646033525467, 265.651090085506439, 19.666666656732559 ],
					"size" : 3378.503401360544103,
					"thickness" : 20.0
				}

			}
, 			{
				"box" : 				{
					"id" : "obj-119",
					"maxclass" : "newobj",
					"numinlets" : 2,
					"numoutlets" : 1,
					"outlettype" : [ "" ],
					"patching_rect" : [ 544.209808588027954, 793.170103847980499, 79.0, 22.0 ],
					"text" : "expr $f2 - $f1"
				}

			}
, 			{
				"box" : 				{
					"bgcolor" : [ 0.96078431372549, 0.529411764705882, 0.529411764705882, 0.37 ],
					"floatoutput" : 1,
					"id" : "obj-113",
					"knobshape" : 5,
					"maxclass" : "slider",
					"numinlets" : 1,
					"numoutlets" : 1,
					"outlettype" : [ "" ],
					"parameter_enable" : 0,
					"patching_rect" : [ 775.25, 1169.42778879404068, 264.5, 24.73457944393158 ],
					"presentation" : 1,
					"presentation_rect" : [ 0.249986201524734, 66.632689625024796, 265.98442342877388, 25.401246130466461 ],
					"relative" : 1,
					"size" : 3378.503401360544103,
					"thickness" : 20.0
				}

			}
, 			{
				"box" : 				{
					"buffername" : "loadbuffer",
					"id" : "obj-75",
					"maxclass" : "waveform~",
					"numinlets" : 5,
					"numoutlets" : 6,
					"outlettype" : [ "float", "float", "float", "float", "list", "" ],
					"patching_rect" : [ 779.300013184547424, 1097.999987781047821, 256.0, 64.0 ],
					"presentation" : 1,
					"presentation_rect" : [ 4.299999386072159, 47.333312690258026, 256.0, 64.0 ]
				}

			}
, 			{
				"box" : 				{
					"id" : "obj-32",
					"maxclass" : "newobj",
					"numinlets" : 1,
					"numoutlets" : 2,
					"outlettype" : [ "bang", "" ],
					"patching_rect" : [ 68.500019340625727, 600.600003659725189, 59.700000047683716, 22.0 ],
					"text" : "t b s"
				}

			}
, 			{
				"box" : 				{
					"id" : "obj-21",
					"maxclass" : "newobj",
					"numinlets" : 1,
					"numoutlets" : 9,
					"outlettype" : [ "float", "list", "float", "float", "float", "float", "float", "", "int" ],
					"patching_rect" : [ 68.500019340625727, 671.600003838539124, 103.0, 22.0 ],
					"text" : "info~"
				}

			}
, 			{
				"box" : 				{
					"id" : "obj-33",
					"maxclass" : "newobj",
					"numinlets" : 1,
					"numoutlets" : 1,
					"outlettype" : [ "" ],
					"patching_rect" : [ 109.200019388309443, 634.222225785255432, 72.0, 22.0 ],
					"text" : "prepend set"
				}

			}
 ],
		"lines" : [ 			{
				"patchline" : 				{
					"destination" : [ "obj-21", 0 ],
					"source" : [ "obj-10", 0 ]
				}

			}
, 			{
				"patchline" : 				{
					"destination" : [ "obj-152", 0 ],
					"source" : [ "obj-100", 0 ]
				}

			}
, 			{
				"patchline" : 				{
					"destination" : [ "obj-1", 0 ],
					"midpoints" : [ 853.75, 1038.770098239183426, 964.966681063175201, 1038.770098239183426 ],
					"order" : 0,
					"source" : [ "obj-11", 0 ]
				}

			}
, 			{
				"patchline" : 				{
					"destination" : [ "obj-4", 0 ],
					"order" : 1,
					"source" : [ "obj-11", 0 ]
				}

			}
, 			{
				"patchline" : 				{
					"destination" : [ "obj-141", 0 ],
					"midpoints" : [ 784.75, 1208.16236823797226, 1083.625025749206543, 1208.16236823797226, 1083.625025749206543, 157.119094491004944, 826.166689872741699, 157.119094491004944 ],
					"order" : 0,
					"source" : [ "obj-113", 0 ]
				}

			}
, 			{
				"patchline" : 				{
					"destination" : [ "obj-149", 0 ],
					"order" : 2,
					"source" : [ "obj-113", 0 ]
				}

			}
, 			{
				"patchline" : 				{
					"destination" : [ "obj-296", 0 ],
					"order" : 1,
					"source" : [ "obj-113", 0 ]
				}

			}
, 			{
				"patchline" : 				{
					"destination" : [ "obj-122", 0 ],
					"source" : [ "obj-117", 0 ]
				}

			}
, 			{
				"patchline" : 				{
					"destination" : [ "obj-123", 0 ],
					"source" : [ "obj-118", 0 ]
				}

			}
, 			{
				"patchline" : 				{
					"destination" : [ "obj-133", 0 ],
					"order" : 2,
					"source" : [ "obj-119", 0 ]
				}

			}
, 			{
				"patchline" : 				{
					"destination" : [ "obj-143", 0 ],
					"midpoints" : [ 553.709808588027954, 825.170103847980499, 1028.271583199501038, 825.170103847980499, 1028.271583199501038, 170.119094491004944, 868.833357810974121, 170.119094491004944 ],
					"order" : 1,
					"source" : [ "obj-119", 0 ]
				}

			}
, 			{
				"patchline" : 				{
					"destination" : [ "obj-457", 1 ],
					"midpoints" : [ 553.709808588027954, 871.862821102142334, 964.966681063175201, 871.862821102142334 ],
					"order" : 0,
					"source" : [ "obj-119", 0 ]
				}

			}
, 			{
				"patchline" : 				{
					"destination" : [ "obj-288", 1 ],
					"source" : [ "obj-122", 0 ]
				}

			}
, 			{
				"patchline" : 				{
					"destination" : [ "obj-288", 0 ],
					"source" : [ "obj-123", 0 ]
				}

			}
, 			{
				"patchline" : 				{
					"destination" : [ "obj-254", 0 ],
					"source" : [ "obj-125", 1 ]
				}

			}
, 			{
				"patchline" : 				{
					"destination" : [ "obj-328", 0 ],
					"source" : [ "obj-125", 0 ]
				}

			}
, 			{
				"patchline" : 				{
					"destination" : [ "obj-142", 0 ],
					"source" : [ "obj-128", 0 ]
				}

			}
, 			{
				"patchline" : 				{
					"destination" : [ "obj-128", 1 ],
					"source" : [ "obj-130", 0 ]
				}

			}
, 			{
				"patchline" : 				{
					"destination" : [ "obj-25", 0 ],
					"midpoints" : [ 826.166689872741699, 269.999996066093445, 722.123080283403397, 269.999996066093445, 722.123080283403397, 157.119094491004944, 618.079470694065094, 157.119094491004944 ],
					"source" : [ "obj-132", 0 ]
				}

			}
, 			{
				"patchline" : 				{
					"destination" : [ "obj-128", 0 ],
					"order" : 0,
					"source" : [ "obj-133", 0 ]
				}

			}
, 			{
				"patchline" : 				{
					"destination" : [ "obj-243", 1 ],
					"midpoints" : [ 553.709808588027954, 939.552137136459351, 469.066673040390015, 939.552137136459351 ],
					"order" : 2,
					"source" : [ "obj-133", 0 ]
				}

			}
, 			{
				"patchline" : 				{
					"destination" : [ "obj-246", 1 ],
					"midpoints" : [ 553.709808588027954, 946.129914939403534, 519.799996316432953, 946.129914939403534 ],
					"order" : 1,
					"source" : [ "obj-133", 0 ]
				}

			}
, 			{
				"patchline" : 				{
					"destination" : [ "obj-119", 0 ],
					"source" : [ "obj-134", 0 ]
				}

			}
, 			{
				"patchline" : 				{
					"destination" : [ "obj-130", 0 ],
					"source" : [ "obj-134", 1 ]
				}

			}
, 			{
				"patchline" : 				{
					"destination" : [ "obj-132", 0 ],
					"source" : [ "obj-137", 0 ]
				}

			}
, 			{
				"patchline" : 				{
					"destination" : [ "obj-113", 0 ],
					"source" : [ "obj-14", 0 ]
				}

			}
, 			{
				"patchline" : 				{
					"destination" : [ "obj-137", 0 ],
					"source" : [ "obj-141", 0 ]
				}

			}
, 			{
				"patchline" : 				{
					"destination" : [ "obj-141", 0 ],
					"midpoints" : [ 553.709808588027954, 1021.74019593000412, 459.894639641046524, 1021.74019593000412, 459.894639641046524, 145.119094491004944, 826.166689872741699, 145.119094491004944 ],
					"order" : 0,
					"source" : [ "obj-142", 0 ]
				}

			}
, 			{
				"patchline" : 				{
					"destination" : [ "obj-194", 0 ],
					"order" : 1,
					"source" : [ "obj-142", 0 ]
				}

			}
, 			{
				"patchline" : 				{
					"destination" : [ "obj-137", 1 ],
					"source" : [ "obj-143", 0 ]
				}

			}
, 			{
				"patchline" : 				{
					"destination" : [ "obj-134", 0 ],
					"source" : [ "obj-157", 0 ]
				}

			}
, 			{
				"patchline" : 				{
					"destination" : [ "obj-13", 0 ],
					"source" : [ "obj-16", 0 ]
				}

			}
, 			{
				"patchline" : 				{
					"destination" : [ "obj-166", 1 ],
					"source" : [ "obj-164", 0 ]
				}

			}
, 			{
				"patchline" : 				{
					"destination" : [ "obj-169", 0 ],
					"source" : [ "obj-164", 1 ]
				}

			}
, 			{
				"patchline" : 				{
					"destination" : [ "obj-185", 0 ],
					"midpoints" : [ 114.750019340625727, 564.156623542308807, 114.750019340625727, 564.156623542308807 ],
					"order" : 0,
					"source" : [ "obj-166", 0 ]
				}

			}
, 			{
				"patchline" : 				{
					"destination" : [ "obj-34", 0 ],
					"midpoints" : [ 114.750019340625727, 552.313247084617615, 102.583351849428141, 552.313247084617615, 102.583351849428141, 372.646576523780823, 67.75001701604458, 372.646576523780823 ],
					"order" : 1,
					"source" : [ "obj-166", 0 ]
				}

			}
, 			{
				"patchline" : 				{
					"destination" : [ "obj-25", 1 ],
					"source" : [ "obj-168", 1 ]
				}

			}
, 			{
				"patchline" : 				{
					"destination" : [ "obj-25", 0 ],
					"source" : [ "obj-168", 0 ]
				}

			}
, 			{
				"patchline" : 				{
					"destination" : [ "obj-183", 0 ],
					"midpoints" : [ 172.750019340625727, 525.313247084617615, 242.416688947788202, 525.313247084617615, 242.416688947788202, 372.646576523780823, 114.750019340625727, 372.646576523780823 ],
					"source" : [ "obj-169", 0 ]
				}

			}
, 			{
				"patchline" : 				{
					"destination" : [ "obj-164", 0 ],
					"source" : [ "obj-183", 1 ]
				}

			}
, 			{
				"patchline" : 				{
					"destination" : [ "obj-166", 0 ],
					"source" : [ "obj-183", 0 ]
				}

			}
, 			{
				"patchline" : 				{
					"destination" : [ "obj-32", 0 ],
					"source" : [ "obj-185", 0 ]
				}

			}
, 			{
				"patchline" : 				{
					"destination" : [ "obj-113", 0 ],
					"order" : 0,
					"source" : [ "obj-194", 0 ]
				}

			}
, 			{
				"patchline" : 				{
					"destination" : [ "obj-149", 0 ],
					"order" : 1,
					"source" : [ "obj-194", 0 ]
				}

			}
, 			{
				"patchline" : 				{
					"destination" : [ "obj-157", 0 ],
					"midpoints" : [ 519.799996316432953, 516.274079233407974, 553.709808588027954, 516.274079233407974 ],
					"source" : [ "obj-200", 2 ]
				}

			}
, 			{
				"patchline" : 				{
					"destination" : [ "obj-157", 0 ],
					"midpoints" : [ 498.799996316432953, 525.274079233407974, 553.709808588027954, 525.274079233407974 ],
					"source" : [ "obj-200", 0 ]
				}

			}
, 			{
				"patchline" : 				{
					"destination" : [ "obj-258", 1 ],
					"midpoints" : [ 509.299996316432953, 503.747531339526176, 619.948142826557159, 503.747531339526176 ],
					"source" : [ "obj-200", 1 ]
				}

			}
, 			{
				"patchline" : 				{
					"destination" : [ "obj-477", 0 ],
					"source" : [ "obj-21", 6 ]
				}

			}
, 			{
				"patchline" : 				{
					"destination" : [ "obj-75", 2 ],
					"source" : [ "obj-22", 1 ]
				}

			}
, 			{
				"patchline" : 				{
					"destination" : [ "obj-75", 0 ],
					"source" : [ "obj-22", 0 ]
				}

			}
, 			{
				"patchline" : 				{
					"destination" : [ "obj-200", 0 ],
					"midpoints" : [ 458.566673040390015, 1291.533347547054291, 486.035185396671295, 1291.533347547054291, 486.035185396671295, 456.437038123607635, 498.799996316432953, 456.437038123607635 ],
					"source" : [ "obj-243", 0 ]
				}

			}
, 			{
				"patchline" : 				{
					"destination" : [ "obj-247", 0 ],
					"midpoints" : [ 509.299996316432953, 1288.866680800914764, 536.599997371435165, 1288.866680800914764, 536.599997371435165, 454.155556738376617, 562.399996638298035, 454.155556738376617 ],
					"source" : [ "obj-246", 0 ]
				}

			}
, 			{
				"patchline" : 				{
					"destination" : [ "obj-157", 0 ],
					"midpoints" : [ 583.399996638298035, 524.274079233407974, 553.709808588027954, 524.274079233407974 ],
					"source" : [ "obj-247", 2 ]
				}

			}
, 			{
				"patchline" : 				{
					"destination" : [ "obj-157", 0 ],
					"midpoints" : [ 562.399996638298035, 516.274079233407974, 553.709808588027954, 516.274079233407974 ],
					"source" : [ "obj-247", 0 ]
				}

			}
, 			{
				"patchline" : 				{
					"destination" : [ "obj-259", 1 ],
					"midpoints" : [ 572.899996638298035, 495.19938300549984, 697.318534016609192, 495.19938300549984 ],
					"source" : [ "obj-247", 1 ]
				}

			}
, 			{
				"patchline" : 				{
					"destination" : [ "obj-42", 0 ],
					"source" : [ "obj-25", 1 ]
				}

			}
, 			{
				"patchline" : 				{
					"destination" : [ "obj-43", 0 ],
					"source" : [ "obj-25", 0 ]
				}

			}
, 			{
				"patchline" : 				{
					"destination" : [ "obj-11", 1 ],
					"midpoints" : [ 923.300013184547424, 1008.570102959871292, 869.75, 1008.570102959871292 ],
					"order" : 1,
					"source" : [ "obj-254", 0 ]
				}

			}
, 			{
				"patchline" : 				{
					"destination" : [ "obj-260", 0 ],
					"midpoints" : [ 923.300013184547424, 972.400009453296661, 1019.550003796815872, 972.400009453296661, 1019.550003796815872, 408.059264123439789, 596.948142826557159, 408.059264123439789 ],
					"order" : 2,
					"source" : [ "obj-254", 0 ]
				}

			}
, 			{
				"patchline" : 				{
					"destination" : [ "obj-458", 1 ],
					"midpoints" : [ 923.300013184547424, 980.355553478002548, 980.966681063175201, 980.355553478002548 ],
					"order" : 0,
					"source" : [ "obj-254", 0 ]
				}

			}
, 			{
				"patchline" : 				{
					"destination" : [ "obj-271", 0 ],
					"source" : [ "obj-258", 1 ]
				}

			}
, 			{
				"patchline" : 				{
					"destination" : [ "obj-272", 0 ],
					"source" : [ "obj-258", 0 ]
				}

			}
, 			{
				"patchline" : 				{
					"destination" : [ "obj-271", 0 ],
					"source" : [ "obj-259", 0 ]
				}

			}
, 			{
				"patchline" : 				{
					"destination" : [ "obj-272", 0 ],
					"source" : [ "obj-259", 1 ]
				}

			}
, 			{
				"patchline" : 				{
					"destination" : [ "obj-152", 1 ],
					"source" : [ "obj-26", 0 ]
				}

			}
, 			{
				"patchline" : 				{
					"destination" : [ "obj-258", 0 ],
					"order" : 1,
					"source" : [ "obj-260", 0 ]
				}

			}
, 			{
				"patchline" : 				{
					"destination" : [ "obj-259", 0 ],
					"order" : 0,
					"source" : [ "obj-260", 0 ]
				}

			}
, 			{
				"patchline" : 				{
					"destination" : [ "obj-131", 0 ],
					"source" : [ "obj-271", 0 ]
				}

			}
, 			{
				"patchline" : 				{
					"destination" : [ "obj-288", 1 ],
					"midpoints" : [ 728.207422137260437, 681.416485518217087, 895.800012469291687, 681.416485518217087 ],
					"source" : [ "obj-271", 1 ]
				}

			}
, 			{
				"patchline" : 				{
					"destination" : [ "obj-129", 0 ],
					"source" : [ "obj-272", 0 ]
				}

			}
, 			{
				"patchline" : 				{
					"destination" : [ "obj-288", 0 ],
					"midpoints" : [ 644.096290588378906, 700.416485100984573, 756.5, 700.416485100984573 ],
					"source" : [ "obj-272", 1 ]
				}

			}
, 			{
				"patchline" : 				{
					"destination" : [ "obj-125", 0 ],
					"source" : [ "obj-288", 0 ]
				}

			}
, 			{
				"patchline" : 				{
					"destination" : [ "obj-288", 0 ],
					"midpoints" : [ 792.75, 1321.333329081535339, 619.447457671165466, 1321.333329081535339, 619.447457671165466, 882.333349108695984, 756.5, 882.333349108695984 ],
					"source" : [ "obj-291", 0 ]
				}

			}
, 			{
				"patchline" : 				{
					"destination" : [ "obj-291", 0 ],
					"source" : [ "obj-294", 0 ]
				}

			}
, 			{
				"patchline" : 				{
					"destination" : [ "obj-243", 0 ],
					"midpoints" : [ 782.25, 1239.166680306196213, 458.566673040390015, 1239.166680306196213 ],
					"order" : 1,
					"source" : [ "obj-296", 1 ]
				}

			}
, 			{
				"patchline" : 				{
					"destination" : [ "obj-246", 0 ],
					"midpoints" : [ 782.25, 1249.166680306196213, 509.299996316432953, 1249.166680306196213 ],
					"order" : 0,
					"source" : [ "obj-296", 1 ]
				}

			}
, 			{
				"patchline" : 				{
					"destination" : [ "obj-291", 0 ],
					"source" : [ "obj-296", 2 ]
				}

			}
, 			{
				"patchline" : 				{
					"destination" : [ "obj-294", 0 ],
					"source" : [ "obj-296", 0 ]
				}

			}
, 			{
				"patchline" : 				{
					"destination" : [ "obj-10", 0 ],
					"source" : [ "obj-32", 0 ]
				}

			}
, 			{
				"patchline" : 				{
					"destination" : [ "obj-33", 0 ],
					"source" : [ "obj-32", 1 ]
				}

			}
, 			{
				"patchline" : 				{
					"destination" : [ "obj-157", 1 ],
					"midpoints" : [ 767.0, 1004.502798855304718, 665.504904448986053, 1004.502798855304718, 665.504904448986053, 721.758875608444214, 566.709808588027954, 721.758875608444214 ],
					"source" : [ "obj-328", 1 ]
				}

			}
, 			{
				"patchline" : 				{
					"destination" : [ "obj-457", 0 ],
					"midpoints" : [ 756.5, 973.522242784500122, 841.633345305919647, 973.522242784500122 ],
					"source" : [ "obj-328", 0 ]
				}

			}
, 			{
				"patchline" : 				{
					"destination" : [ "obj-21", 0 ],
					"order" : 1,
					"source" : [ "obj-33", 0 ]
				}

			}
, 			{
				"patchline" : 				{
					"destination" : [ "obj-483", 0 ],
					"order" : 0,
					"source" : [ "obj-33", 0 ]
				}

			}
, 			{
				"patchline" : 				{
					"destination" : [ "obj-164", 0 ],
					"midpoints" : [ 67.75001701604458, 416.313244163990021, 145.750019340625727, 416.313244163990021 ],
					"source" : [ "obj-34", 0 ]
				}

			}
, 			{
				"patchline" : 				{
					"destination" : [ "obj-32", 0 ],
					"order" : 0,
					"source" : [ "obj-35", 0 ]
				}

			}
, 			{
				"patchline" : 				{
					"destination" : [ "obj-6", 0 ],
					"order" : 1,
					"source" : [ "obj-35", 0 ]
				}

			}
, 			{
				"patchline" : 				{
					"destination" : [ "obj-16", 0 ],
					"source" : [ "obj-37", 0 ]
				}

			}
, 			{
				"patchline" : 				{
					"destination" : [ "obj-68", 0 ],
					"source" : [ "obj-42", 0 ]
				}

			}
, 			{
				"patchline" : 				{
					"destination" : [ "obj-60", 0 ],
					"order" : 0,
					"source" : [ "obj-43", 0 ]
				}

			}
, 			{
				"patchline" : 				{
					"destination" : [ "obj-61", 0 ],
					"order" : 1,
					"source" : [ "obj-43", 0 ]
				}

			}
, 			{
				"patchline" : 				{
					"destination" : [ "obj-11", 0 ],
					"order" : 0,
					"source" : [ "obj-457", 0 ]
				}

			}
, 			{
				"patchline" : 				{
					"destination" : [ "obj-22", 1 ],
					"source" : [ "obj-457", 1 ]
				}

			}
, 			{
				"patchline" : 				{
					"destination" : [ "obj-22", 0 ],
					"order" : 1,
					"source" : [ "obj-457", 0 ]
				}

			}
, 			{
				"patchline" : 				{
					"destination" : [ "obj-458", 0 ],
					"source" : [ "obj-457", 2 ]
				}

			}
, 			{
				"patchline" : 				{
					"destination" : [ "obj-1", 0 ],
					"source" : [ "obj-458", 0 ]
				}

			}
, 			{
				"patchline" : 				{
					"destination" : [ "obj-271", 2 ],
					"order" : 0,
					"source" : [ "obj-478", 0 ]
				}

			}
, 			{
				"patchline" : 				{
					"destination" : [ "obj-272", 2 ],
					"order" : 1,
					"source" : [ "obj-478", 0 ]
				}

			}
, 			{
				"patchline" : 				{
					"destination" : [ "obj-75", 0 ],
					"source" : [ "obj-482", 0 ]
				}

			}
, 			{
				"patchline" : 				{
					"destination" : [ "obj-14", 0 ],
					"order" : 0,
					"source" : [ "obj-486", 0 ]
				}

			}
, 			{
				"patchline" : 				{
					"destination" : [ "obj-487", 0 ],
					"order" : 1,
					"source" : [ "obj-486", 0 ]
				}

			}
, 			{
				"patchline" : 				{
					"destination" : [ "obj-113", 0 ],
					"order" : 0,
					"source" : [ "obj-487", 0 ]
				}

			}
, 			{
				"patchline" : 				{
					"destination" : [ "obj-149", 0 ],
					"order" : 1,
					"source" : [ "obj-487", 0 ]
				}

			}
, 			{
				"patchline" : 				{
					"destination" : [ "obj-7", 0 ],
					"order" : 1,
					"source" : [ "obj-5", 0 ]
				}

			}
, 			{
				"patchline" : 				{
					"destination" : [ "obj-9", 0 ],
					"order" : 0,
					"source" : [ "obj-5", 0 ]
				}

			}
, 			{
				"patchline" : 				{
					"destination" : [ "obj-164", 0 ],
					"midpoints" : [ 1.5, 632.600003659725189, -11.374990329687137, 632.600003659725189, -11.374990329687137, 416.979911804199219, 145.750019340625727, 416.979911804199219 ],
					"source" : [ "obj-6", 0 ]
				}

			}
, 			{
				"patchline" : 				{
					"destination" : [ "obj-259", 1 ],
					"source" : [ "obj-60", 0 ]
				}

			}
, 			{
				"patchline" : 				{
					"destination" : [ "obj-258", 1 ],
					"source" : [ "obj-61", 0 ]
				}

			}
, 			{
				"patchline" : 				{
					"destination" : [ "obj-60", 1 ],
					"order" : 0,
					"source" : [ "obj-68", 0 ]
				}

			}
, 			{
				"patchline" : 				{
					"destination" : [ "obj-61", 1 ],
					"order" : 1,
					"source" : [ "obj-68", 0 ]
				}

			}
, 			{
				"patchline" : 				{
					"destination" : [ "obj-100", 0 ],
					"order" : 1,
					"source" : [ "obj-7", 0 ]
				}

			}
, 			{
				"patchline" : 				{
					"destination" : [ "obj-168", 0 ],
					"order" : 0,
					"source" : [ "obj-7", 0 ]
				}

			}
, 			{
				"patchline" : 				{
					"destination" : [ "obj-32", 0 ],
					"source" : [ "obj-8", 0 ]
				}

			}
, 			{
				"patchline" : 				{
					"destination" : [ "obj-100", 0 ],
					"order" : 1,
					"source" : [ "obj-9", 0 ]
				}

			}
, 			{
				"patchline" : 				{
					"destination" : [ "obj-168", 0 ],
					"order" : 0,
					"source" : [ "obj-9", 0 ]
				}

			}
 ],
		"parameters" : 		{
			"obj-26" : [ "live.text", "live.text", 0 ],
			"obj-37" : [ "live.text[1]", "live.text", 0 ],
			"parameterbanks" : 			{

			}
,
			"inherited_shortname" : 1
		}
,
		"dependency_cache" : [  ],
		"autosave" : 0
	}

}
